<svg xmlns="http://www.w3.org/2000/svg" width="123.051" height="76.557" viewBox="0 0 123.051 76.557"><g transform="translate(-149 -52)"><path d="M287.775,261.232h-.129c-2.575-3.927-7.145-5.986-12.1-5.986-12.809,0-18.924,10.235-18.924,18.924,0,9.4,6.887,18.6,18.924,18.6,4.828,0,9.527-2.06,12.1-6.437h.129v5.536h6.694v-35.66h-6.694Zm-12.294,25.425c-7.081,0-12.166-6.115-12.166-12.551,0-5.6,3.991-12.745,12.23-12.745,6.888,0,12.359,5.149,12.359,12.745A12.458,12.458,0,0,1,275.481,286.657Z" transform="translate(-68.015 -179.386)" fill="#fff"/><path d="M379.116,241.457a14.544,14.544,0,0,0-12.23,5.922h-.129V230.45h-6.695v47.633h6.63v-5.15h.129a15.6,15.6,0,0,0,12.424,6.05,18.382,18.382,0,0,0,18.345-18.73A18.7,18.7,0,0,0,379.116,241.457Zm-.386,31.411a12.283,12.283,0,0,1-12.166-12.744c0-6.308,4.828-12.552,12.166-12.552,7.016,0,12.165,5.986,12.165,12.681A12.508,12.508,0,0,1,378.73,272.868Z" transform="translate(-125.539 -165.597)" fill="#fff"/><path d="M237.431,243.134v-6.416H230.4V230.4h-6.416v47.653h13.444V271.64H230.4V243.134Z" transform="translate(-49.867 -165.571)" fill="#fff"/><path d="M179.887,201.495l-.225,2.966c-.2,2.593-1.687,4.557-4.559,6.006a17.2,17.2,0,0,1-4.875,1.543l-2.828.337v14.711h12.253v28.506H167.4v6.417h18.67V220.641H173.816v-2.822c4.851-1.316,9.951-4.477,11.676-9.907h13.444v-6.417Z" transform="translate(-18.399 -149.495)" fill="#faae0b"/><path d="M168.68,367.2l-1.281-5.243h1.021l.5,2.382c.13.638.253,1.305.341,1.824h.017c.084-.548.228-1.174.38-1.836l.564-2.37h1.009l.519,2.413c.127.619.24,1.2.318,1.773h.016c.092-.58.218-1.178.355-1.817l.546-2.369h.975l-1.413,5.243h-1.022l-.542-2.469a16.26,16.26,0,0,1-.3-1.659h-.016a15.906,15.906,0,0,1-.346,1.661l-.609,2.468Z" transform="translate(-18.399 -238.726)" fill="#fff"/><path d="M192.362,364.872h-1.976v1.538H192.6v.788h-3.168v-5.243h3.052v.788h-2.093v1.348h1.976Z" transform="translate(-30.649 -238.726)" fill="#fff"/><path d="M214.006,361.955h.95v2.412h.022c.125-.2.259-.388.384-.565l1.374-1.847h1.179l-1.807,2.23,1.925,3.013h-1.12l-1.484-2.4-.471.56v1.84h-.95Z" transform="translate(-44.317 -238.726)" fill="#fff"/><path d="M230.109,367.2v-5.243H231.2l1.354,2.25a14.727,14.727,0,0,1,.892,1.757l.019,0c-.068-.7-.086-1.372-.086-2.173v-1.83h.886V367.2h-.993l-1.368-2.307a18.012,18.012,0,0,1-.94-1.808l-.025,0c.038.681.051,1.373.051,2.235V367.2Z" transform="translate(-53.272 -238.726)" fill="#fff"/><path d="M252.15,364.417a2.477,2.477,0,0,1-2.509,2.759,2.427,2.427,0,0,1-2.418-2.667,2.516,2.516,0,0,1,2.5-2.748A2.42,2.42,0,0,1,252.15,364.417Zm-3.917.073c0,1.07.541,1.92,1.456,1.92s1.449-.861,1.449-1.958c0-.99-.491-1.924-1.446-1.924S248.233,363.413,248.233,364.49Z" transform="translate(-62.788 -238.619)" fill="#fff"/><path d="M266.109,367.2l-1.281-5.243h1.021l.5,2.382c.13.638.253,1.305.34,1.824h.017c.084-.548.228-1.174.38-1.836l.564-2.37h1.009l.519,2.413c.127.619.239,1.2.317,1.773h.016c.092-.58.218-1.178.356-1.817l.546-2.369h.975l-1.413,5.243h-1.023l-.542-2.469a16.248,16.248,0,0,1-.295-1.659H268.1a16.017,16.017,0,0,1-.346,1.661l-.609,2.468Z" transform="translate(-72.579 -238.726)" fill="#fff"/><path d="M297.193,367.2v-2.183l-1.659-3.061h1.1l.625,1.345c.178.386.314.683.457,1.039h.016c.129-.335.279-.658.454-1.041l.631-1.343h1.08l-1.741,3.034V367.2Z" transform="translate(-89.654 -238.726)" fill="#fff"/><path d="M316.448,364.417a2.477,2.477,0,0,1-2.509,2.759,2.428,2.428,0,0,1-2.419-2.667,2.516,2.516,0,0,1,2.5-2.748A2.42,2.42,0,0,1,316.448,364.417Zm-3.917.073c0,1.07.541,1.92,1.456,1.92s1.449-.861,1.449-1.958c0-.99-.491-1.924-1.446-1.924S312.531,363.413,312.531,364.49Z" transform="translate(-98.544 -238.619)" fill="#fff"/><path d="M331.272,361.955v3.057c0,1.025.425,1.5,1.074,1.5.69,0,1.1-.473,1.1-1.5v-3.057h.958v3c0,1.615-.831,2.334-2.1,2.334-1.21,0-2-.679-2-2.328v-3Z" transform="translate(-108.995 -238.726)" fill="#fff"/><path d="M347.783,361.976a8.647,8.647,0,0,1,1.453-.113,2.435,2.435,0,0,1,1.617.423,1.319,1.319,0,0,1,.452,1.053,1.387,1.387,0,0,1-.953,1.31v.022a1.32,1.32,0,0,1,.731,1.015,11.626,11.626,0,0,0,.414,1.462h-.984a6.809,6.809,0,0,1-.353-1.237c-.15-.684-.4-.905-.943-.918h-.482v2.155h-.951Zm.951,2.314h.566c.65,0,1.05-.342,1.05-.863,0-.57-.4-.839-1.021-.841a2.647,2.647,0,0,0-.6.049Z" transform="translate(-118.71 -238.675)" fill="#fff"/><path d="M373.886,367.2l-1.7-5.243h1.045l.716,2.384c.2.661.377,1.275.513,1.909h.017c.139-.619.329-1.258.533-1.9l.765-2.4H376.8l-1.812,5.243Z" transform="translate(-132.282 -238.726)" fill="#fff"/><path d="M389.47,365.716l-.447,1.482h-.99l1.682-5.243h1.22l1.7,5.243H391.61l-.475-1.482Zm1.507-.724-.413-1.292c-.1-.325-.187-.682-.267-.986h-.017c-.076.308-.156.671-.249.982l-.4,1.3Z" transform="translate(-141.093 -238.726)" fill="#fff"/><path d="M405.81,361.955h.958v4.439h2.156v.8H405.81Z" transform="translate(-150.979 -238.726)" fill="#fff"/><path d="M420.954,361.955v3.057c0,1.025.425,1.5,1.074,1.5.69,0,1.1-.473,1.1-1.5v-3.057h.958v3c0,1.615-.831,2.334-2.1,2.334-1.21,0-2-.679-2-2.328v-3Z" transform="translate(-158.867 -238.726)" fill="#fff"/><path d="M440.4,364.872h-1.976v1.538h2.209v.788h-3.168v-5.243h3.052v.788h-2.094v1.348H440.4Z" transform="translate(-168.582 -238.726)" fill="#fff"/></g></svg>