<svg xmlns="http://www.w3.org/2000/svg" width="71.722" height="44.623" viewBox="0 0 71.722 44.623">
  <g id="Group_2612" data-name="Group 2612" transform="translate(-25 -70.973)">
    <path id="Path_63" data-name="Path 63" d="M168.146,365.011l-.747-3.056h.6l.291,1.388c.076.372.147.761.2,1.063h.01c.049-.319.133-.684.221-1.07l.329-1.381h.588l.3,1.407c.074.361.14.7.185,1.033h.01c.054-.338.127-.686.207-1.059l.318-1.381h.568l-.824,3.056h-.6l-.316-1.439a9.474,9.474,0,0,1-.172-.967h-.009a9.282,9.282,0,0,1-.2.968l-.355,1.439Z" transform="translate(-142.399 -249.466)" fill="#6d6f72"/>
    <path id="Path_64" data-name="Path 64" d="M191.138,363.655h-1.152v.9h1.288v.459h-1.846v-3.056h1.779v.459h-1.22v.786h1.152Z" transform="translate(-158.728 -249.466)" fill="#6d6f72"/>
    <path id="Path_65" data-name="Path 65" d="M214.006,361.955h.554v1.406h.013c.073-.117.151-.226.224-.329l.8-1.077h.687l-1.053,1.3,1.122,1.756H215.7l-.865-1.4-.275.327v1.073h-.554Z" transform="translate(-176.947 -249.466)" fill="#6d6f72"/>
    <path id="Path_66" data-name="Path 66" d="M230.109,365.011v-3.056h.638l.789,1.312a8.589,8.589,0,0,1,.52,1.024l.011,0c-.04-.406-.05-.8-.05-1.266v-1.067h.516v3.056h-.579l-.8-1.345a10.49,10.49,0,0,1-.548-1.054l-.014,0c.022.4.03.8.03,1.3v1.093Z" transform="translate(-188.884 -249.466)" fill="#6d6f72"/>
    <path id="Path_67" data-name="Path 67" d="M250.094,363.31a1.444,1.444,0,0,1-1.463,1.608,1.415,1.415,0,0,1-1.41-1.554,1.466,1.466,0,0,1,1.455-1.6A1.41,1.41,0,0,1,250.094,363.31Zm-2.283.043c0,.624.315,1.119.849,1.119s.845-.5.845-1.141c0-.577-.286-1.122-.843-1.122S247.811,362.725,247.811,363.352Z" transform="translate(-201.569 -249.323)" fill="#6d6f72"/>
    <path id="Path_68" data-name="Path 68" d="M265.575,365.011l-.747-3.056h.6l.291,1.388c.076.372.147.761.2,1.063h.01c.049-.319.133-.684.221-1.07l.329-1.381h.588l.3,1.407c.074.361.14.7.185,1.033h.01c.054-.338.127-.686.207-1.059l.318-1.381h.568l-.824,3.056h-.6l-.316-1.439a9.488,9.488,0,0,1-.172-.967h-.009a9.354,9.354,0,0,1-.2.968l-.355,1.439Z" transform="translate(-214.62 -249.466)" fill="#6d6f72"/>
    <path id="Path_69" data-name="Path 69" d="M296.5,365.011v-1.272l-.967-1.784h.639l.364.784c.1.225.183.4.267.606h.009c.075-.2.163-.384.265-.607l.368-.783h.63l-1.015,1.769v1.288Z" transform="translate(-237.381 -249.466)" fill="#6d6f72"/>
    <path id="Path_70" data-name="Path 70" d="M314.392,363.31a1.443,1.443,0,0,1-1.462,1.608,1.415,1.415,0,0,1-1.41-1.554,1.466,1.466,0,0,1,1.455-1.6A1.41,1.41,0,0,1,314.392,363.31Zm-2.283.043c0,.624.315,1.119.849,1.119s.845-.5.845-1.141c0-.577-.286-1.122-.843-1.122S312.109,362.725,312.109,363.352Z" transform="translate(-249.231 -249.323)" fill="#6d6f72"/>
    <path id="Path_71" data-name="Path 71" d="M330.873,361.955v1.782c0,.6.248.875.626.875.4,0,.644-.276.644-.875v-1.782h.559V363.7c0,.941-.484,1.36-1.223,1.36-.705,0-1.165-.4-1.165-1.357v-1.749Z" transform="translate(-263.162 -249.466)" fill="#6d6f72"/>
    <path id="Path_59" data-name="Path 59" d="M274.78,258.735H274.7a8.237,8.237,0,0,0-7.053-3.489c-7.466,0-11.03,5.965-11.03,11.03a10.671,10.671,0,0,0,11.03,10.842,7.953,7.953,0,0,0,7.053-3.752h.075v3.227h3.9V255.809h-3.9Zm-7.166,14.819a7.251,7.251,0,0,1-7.091-7.316c0-3.264,2.326-7.429,7.128-7.429a7.1,7.1,0,0,1,7.2,7.429A7.261,7.261,0,0,1,267.614,273.555Z" transform="translate(-208.536 -170.366)" fill="#0aa156"/>
    <path id="Path_60" data-name="Path 60" d="M371.168,236.866a8.477,8.477,0,0,0-7.128,3.452h-.075V230.45h-3.9v27.763h3.864v-3H364a9.091,9.091,0,0,0,7.241,3.527,10.714,10.714,0,0,0,10.693-10.917A10.9,10.9,0,0,0,371.168,236.866Zm-.225,18.309a7.378,7.378,0,0,1,0-14.744,7.378,7.378,0,0,1,0,14.744Z" transform="translate(-285.214 -151.986)" fill="#0aa156"/>
    <path id="Path_61" data-name="Path 61" d="M231.823,237.824v-3.74h-4.1V230.4h-3.74v27.775h7.836v-3.74h-4.1V237.824Z" transform="translate(-184.346 -151.951)" fill="#0aa156"/>
    <path id="Path_62" data-name="Path 62" d="M174.678,201.495l-.131,1.729a4.2,4.2,0,0,1-2.657,3.5,10.026,10.026,0,0,1-2.841.9l-1.648.2v8.574h7.142V233.01H167.4v3.74h10.882v-24.1H171.14V211.01c2.827-.767,5.8-2.61,6.805-5.775h7.836v-3.74Z" transform="translate(-142.4 -130.522)" fill="#faae0b"/>
    <path id="Path_72" data-name="Path 72" d="M347.783,361.929a5.037,5.037,0,0,1,.847-.066,1.419,1.419,0,0,1,.942.246.769.769,0,0,1,.263.614.808.808,0,0,1-.556.763v.013a.77.77,0,0,1,.426.591,6.761,6.761,0,0,0,.241.852h-.573a3.969,3.969,0,0,1-.206-.721c-.087-.4-.233-.528-.55-.535h-.281v1.256h-.554Zm.554,1.349h.33c.379,0,.612-.2.612-.5,0-.332-.234-.489-.6-.49a1.543,1.543,0,0,0-.347.028Z" transform="translate(-276.111 -249.398)" fill="#6d6f72"/>
    <path id="Path_73" data-name="Path 73" d="M373.177,365.011l-.989-3.056h.609l.417,1.39c.118.385.22.743.3,1.113h.01c.081-.361.192-.734.31-1.1l.446-1.4h.594l-1.056,3.056Z" transform="translate(-294.202 -249.466)" fill="#6d6f72"/>
    <path id="Path_74" data-name="Path 74" d="M388.871,364.147l-.261.864h-.577l.981-3.056h.711l.993,3.056h-.6l-.277-.864Zm.879-.422-.241-.753c-.059-.189-.109-.4-.156-.575h-.01c-.044.179-.091.391-.145.573l-.236.755Z" transform="translate(-305.947 -249.466)" fill="#6d6f72"/>
    <path id="Path_75" data-name="Path 75" d="M405.81,361.955h.559v2.588h1.257v.469H405.81Z" transform="translate(-319.125 -249.466)" fill="#6d6f72"/>
    <path id="Path_76" data-name="Path 76" d="M420.555,361.955v1.782c0,.6.248.875.626.875.4,0,.644-.276.644-.875v-1.782h.559V363.7c0,.941-.485,1.36-1.223,1.36-.705,0-1.165-.4-1.165-1.357v-1.749Z" transform="translate(-329.64 -249.466)" fill="#6d6f72"/>
    <path id="Path_77" data-name="Path 77" d="M439.175,363.655h-1.152v.9h1.288v.459h-1.846v-3.056h1.779v.459h-1.22v.786h1.152Z" transform="translate(-342.589 -249.466)" fill="#6d6f72"/>
  </g>
</svg>
