<svg xmlns="http://www.w3.org/2000/svg" width="633.681" height="347.119" viewBox="0 0 633.681 347.119">
    <defs>
        <style>
            .cls-2{fill:#f5f5f5}.cls-3{fill:#e0e0e0}.cls-4{fill:#ebebeb}.cls-5{fill:#fafafa}.cls-10,.cls-6{fill:#fff}.cls-7{fill:#263238}.cls-8{fill:#0aa156}.cls-9{fill:#455a64}.cls-10{stroke:#fff}.cls-11{fill:#ffbe9d}.cls-12{fill:#eb996e}.cls-13{fill:#faad0a}.cls-14{opacity:.6}.cls-15{opacity:.2}
        </style>
    </defs>
    <g id="Group_21350" opacity="0.849" transform="translate(-58.638 -70.854)">
        <g id="Background_Complete">
            <g id="Group_21146">
                <path id="Rectangle_8064" d="M0 0H56.698V77.587H0z" class="cls-2" transform="rotate(-12.187 651.354 -1042.936)"/>
            </g>
            <g id="Group_21155">
                <g id="Group_21147">
                    <path id="Rectangle_8065" d="M0 0H188.888V122.832H0z" class="cls-2" transform="translate(365.235 70.854)"/>
                </g>
                <g id="Group_21150">
                    <g id="Group_21148">
                        <circle id="Ellipse_217" cx="25.703" cy="25.703" r="25.703" class="cls-3" transform="rotate(-76.59 306.79 -198.366)"/>
                    </g>
                    <g id="Group_21149">
                        <path id="Path_24574" d="M468.318 127.077l-6.712 3.875-6.712 3.875v-15.5l6.712 3.875z" class="cls-2"/>
                    </g>
                </g>
                <g id="Group_21151">
                    <path id="Rectangle_8066" d="M0 0H188.888V22.065H0z" class="cls-3" transform="translate(365.235 171.622)"/>
                </g>
                <g id="Group_21152">
                    <path id="Path_24575" d="M383.592 182.654l-2.724 1.573-2.724 1.573v-6.291l2.724 1.573z" class="cls-2"/>
                </g>
                <g id="Group_21153">
                    <path id="Rectangle_8067" d="M0 0H139.33V1H0z" class="cls-2" transform="translate(399.248 182.154)"/>
                </g>
                <g id="Group_21154">
                    <path id="Path_24576" d="M402.069 182.654a2.077 2.077 0 1 1-2.077-2.076 2.077 2.077 0 0 1 2.077 2.076z" class="cls-2"/>
                </g>
            </g>
            <g id="Group_21181">
                <g id="Group_21172">
                    <g id="Group_21161">
                        <g id="Group_21156">
                            <rect id="Rectangle_8068" width="193.381" height="174.277" class="cls-2" rx="5.487" transform="translate(498.938 159.322)"/>
                        </g>
                        <g id="Group_21157">
                            <path id="Rectangle_8069" d="M6.409 0h180.563a6.409 6.409 0 0 1 6.409 6.409v13.05H0V6.409A6.409 6.409 0 0 1 6.409 0z" class="cls-4" transform="translate(498.938 159.322)"/>
                        </g>
                        <g id="Group_21158">
                            <circle id="Ellipse_218" cx="1.525" cy="1.525" r="1.525" class="cls-5" transform="translate(509.212 167.559)"/>
                        </g>
                        <g id="Group_21159">
                            <path id="Path_24577" d="M521.416 169.084a1.526 1.526 0 1 1-1.526-1.525 1.526 1.526 0 0 1 1.526 1.525z" class="cls-5"/>
                        </g>
                        <g id="Group_21160">
                            <circle id="Ellipse_219" cx="1.525" cy="1.525" r="1.525" class="cls-5" transform="translate(527.517 167.559)"/>
                        </g>
                    </g>
                    <g id="Group_21162">
                        <path id="Rectangle_8070" d="M0 0H73.022V2.643H0z" class="cls-5" transform="translate(596.044 194.469)"/>
                    </g>
                    <g id="Group_21163">
                        <path id="Rectangle_8071" d="M0 0H73.022V2.643H0z" class="cls-5" transform="translate(596.044 205.345)"/>
                    </g>
                    <g id="Group_21164">
                        <path id="Rectangle_8072" d="M0 0H73.022V2.643H0z" class="cls-5" transform="translate(596.044 216.22)"/>
                    </g>
                    <g id="Group_21165">
                        <path id="Rectangle_8073" d="M0 0H73.022V2.643H0z" class="cls-5" transform="translate(596.044 227.096)"/>
                    </g>
                    <g id="Group_21166">
                        <path id="Rectangle_8074" d="M0 0H36.511V2.643H0z" class="cls-5" transform="translate(596.044 237.971)"/>
                    </g>
                    <g id="Group_21167">
                        <path id="Rectangle_8075" d="M0 0H73.021V2.643H0z" class="cls-5" transform="rotate(180 295.753 131.003)"/>
                    </g>
                    <g id="Group_21168">
                        <path id="Rectangle_8076" d="M0 0H73.021V2.643H0z" class="cls-5" transform="rotate(180 295.753 136.44)"/>
                    </g>
                    <g id="Group_21169">
                        <path id="Rectangle_8077" d="M0 0H73.021V2.643H0z" class="cls-5" transform="rotate(180 295.753 141.879)"/>
                    </g>
                    <g id="Group_21170">
                        <path id="Rectangle_8078" d="M0 0H73.021V2.643H0z" class="cls-5" transform="rotate(180 295.753 147.316)"/>
                    </g>
                    <g id="Group_21171">
                        <path id="Rectangle_8079" d="M0 0H36.511V2.643H0z" class="cls-5" transform="rotate(180 295.753 152.754)"/>
                    </g>
                </g>
                <g id="Group_21176">
                    <g id="Group_21173">
                        <path id="Rectangle_8080" d="M0 0H62.486V51.991H0z" class="cls-5" transform="translate(604.122 256.44)"/>
                    </g>
                    <g id="Group_21174">
                        <path id="Path_24578" d="M604.016 292.731l18.465-12.938 12.885 8.914 20.264-17.146 10.979 10.875v26h-62.487z" class="cls-4"/>
                    </g>
                    <g id="Group_21175">
                        <circle id="Ellipse_220" cx="5.234" cy="5.234" r="5.234" class="cls-4" transform="translate(631.212 266.326)"/>
                    </g>
                </g>
                <g id="Group_21180">
                    <g id="Group_21177">
                        <path id="Rectangle_8081" d="M0 0H62.486V51.991H0z" class="cls-5" transform="translate(518.486 192.868)"/>
                    </g>
                    <g id="Group_21178">
                        <path id="Path_24579" d="M518.379 229.159l18.465-12.938 12.885 8.914 20.264-17.146 10.979 10.875v26h-62.486z" class="cls-4"/>
                    </g>
                    <g id="Group_21179">
                        <circle id="Ellipse_221" cx="5.234" cy="5.234" r="5.234" class="cls-4" transform="translate(545.575 202.754)"/>
                    </g>
                </g>
            </g>
            <g id="Group_21198">
                <g id="Group_21193">
                    <g id="Group_21187">
                        <g id="Group_21182">
                            <path id="Rectangle_8082" d="M0 0h232.644v121.359a4.651 4.651 0 0 1-4.651 4.651H4.651A4.651 4.651 0 0 1 0 121.359V0z" class="cls-2" transform="translate(58.638 240.543)"/>
                        </g>
                        <g id="Group_21183">
                            <path id="Rectangle_8083" d="M0 0H232.644V23.41H0z" class="cls-4" transform="translate(58.638 240.543)"/>
                        </g>
                        <g id="Group_21184">
                            <circle id="Ellipse_222" cx="1.835" cy="1.835" r="1.835" class="cls-5" transform="translate(70.999 250.452)"/>
                        </g>
                        <g id="Group_21185">
                            <circle id="Ellipse_223" cx="1.835" cy="1.835" r="1.835" class="cls-5" transform="translate(82.009 250.452)"/>
                        </g>
                        <g id="Group_21186">
                            <circle id="Ellipse_224" cx="1.835" cy="1.835" r="1.835" class="cls-5" transform="translate(93.02 250.452)"/>
                        </g>
                    </g>
                    <g id="Group_21188">
                        <path id="Rectangle_8084" d="M0 0H87.847V3.18H0z" class="cls-4" transform="translate(175.46 282.826)"/>
                    </g>
                    <g id="Group_21189">
                        <path id="Rectangle_8085" d="M0 0H87.847V3.18H0z" class="cls-4" transform="translate(175.46 295.909)"/>
                    </g>
                    <g id="Group_21190">
                        <path id="Rectangle_8086" d="M0 0H87.847V3.18H0z" class="cls-4" transform="translate(175.46 308.993)"/>
                    </g>
                    <g id="Group_21191">
                        <path id="Rectangle_8087" d="M0 0H87.847V3.18H0z" class="cls-4" transform="translate(175.46 322.077)"/>
                    </g>
                    <g id="Group_21192">
                        <path id="Rectangle_8088" d="M0 0H43.924V3.18H0z" class="cls-4" transform="translate(175.46 335.16)"/>
                    </g>
                </g>
                <g id="Group_21197">
                    <g id="Group_21194">
                        <path id="Rectangle_8089" d="M0 0H75.173V62.547H0z" class="cls-5" transform="translate(77.989 280.598)"/>
                    </g>
                    <g id="Group_21195">
                        <path id="Path_24580" d="M77.861 324.257l22.214-15.565 15.5 10.724 24.378-20.628 13.209 13.084v31.274H77.989z" class="cls-4"/>
                    </g>
                    <g id="Group_21196">
                        <path id="Path_24581" d="M123.172 298.788a6.3 6.3 0 1 1-6.3-6.3 6.3 6.3 0 0 1 6.3 6.3z" class="cls-4"/>
                    </g>
                </g>
            </g>
        </g>
        <g id="Document">
            <g id="Group_21219">
                <g id="Group_21202">
                    <g id="Group_21199">
                        <path id="Rectangle_8090" d="M0 0H56.698V77.587H0z" class="cls-6" transform="rotate(-12.187 711.992 -1003.346)"/>
                    </g>
                    <g id="Group_21201">
                        <g id="Group_21200">
                            <path id="Path_24582" d="M299.655 191.561s-.037-.127-.094-.369-.14-.609-.245-1.069l-.922-4.137c-.8-3.623-1.958-8.894-3.426-15.562l-11.923-54.651.28.181-55.408 11.992h-.007l.2-.309 16.332 75.848-.252-.163 40.272-8.584 11.208-2.365 2.955-.614c.671-.137 1.03-.2 1.03-.2s-.323.086-.976.235l-2.906.652-11.138 2.461-40.356 8.829-.207.046-.045-.209c-4.61-21.281-10.291-47.5-16.426-75.828l-.055-.254.255-.055h.006l55.419-11.944.231-.05.049.23c4.8 22.473 8.864 41.462 11.727 54.851l3.291 15.537.857 4.1.213 1.049c.046.239.061.352.061.352z" class="cls-7"/>
                        </g>
                    </g>
                </g>
                <g id="Group_21204">
                    <g id="Group_21203">
                        <path id="Path_24583" d="M265.041 135.615c.03.141-5.975 1.557-13.411 3.163s-13.491 2.794-13.521 2.654 5.973-1.557 13.411-3.163 13.49-2.795 13.521-2.654z" class="cls-7"/>
                    </g>
                </g>
                <g id="Group_21206">
                    <g id="Group_21205">
                        <path id="Path_24584" d="M281.03 139.059c.03.141-9.236 2.261-20.693 4.735s-20.775 4.368-20.805 4.227 9.233-2.26 20.695-4.736 20.773-4.367 20.803-4.226z" class="cls-7"/>
                    </g>
                </g>
                <g id="Group_21208">
                    <g id="Group_21207">
                        <path id="Path_24585" d="M282.515 145.934c.03.14-9.236 2.261-20.693 4.735s-20.775 4.368-20.8 4.227 9.233-2.26 20.7-4.736 20.762-4.367 20.793-4.226z" class="cls-7"/>
                    </g>
                </g>
                <g id="Group_21210">
                    <g id="Group_21209">
                        <path id="Path_24586" d="M284 152.809c.031.14-9.235 2.261-20.693 4.735s-20.774 4.368-20.8 4.227 9.234-2.26 20.7-4.736 20.762-4.367 20.793-4.226z" class="cls-7"/>
                    </g>
                </g>
                <g id="Group_21212">
                    <g id="Group_21211">
                        <path id="Path_24587" d="M285.484 159.684c.031.14-9.235 2.261-20.693 4.735s-20.774 4.368-20.8 4.227 9.234-2.26 20.7-4.736 20.763-4.367 20.793-4.226z" class="cls-7"/>
                    </g>
                </g>
                <g id="Group_21214">
                    <g id="Group_21213">
                        <path id="Path_24588" d="M286.969 166.558c.03.141-9.235 2.262-20.693 4.736s-20.775 4.368-20.805 4.227 9.233-2.261 20.695-4.736 20.773-4.367 20.803-4.227z" class="cls-7"/>
                    </g>
                </g>
                <g id="Group_21216">
                    <g id="Group_21215">
                        <path id="Path_24589" d="M288.454 173.433c.03.141-9.236 2.261-20.693 4.736s-20.775 4.367-20.8 4.227 9.233-2.261 20.7-4.736 20.762-4.367 20.793-4.227z" class="cls-7"/>
                    </g>
                </g>
                <g id="Group_21218">
                    <g id="Group_21217">
                        <path id="Path_24590" d="M270.746 184.453c.03.141-4.939 1.333-11.1 2.663s-11.178 2.295-11.208 2.155 4.937-1.333 11.1-2.664 11.178-2.294 11.208-2.154z" class="cls-7"/>
                    </g>
                </g>
            </g>
        </g>
        <g id="Pointer">
            <g id="Group_21229">
                <g id="Group_21220">
                    <path id="Path_24591" d="M542.569 309.846l14.183 36.417 5.914-9.553 8.193 10.758 9.772-9.293-9.312-8.971 8.593-5.812z" class="cls-8"/>
                </g>
                <g id="Group_21222">
                    <g id="Group_21221">
                        <path id="Path_24592" d="M537.23 315.229a75.979 75.979 0 0 1-10.617 6.734 75.979 75.979 0 0 1 10.617-6.734z" class="cls-7"/>
                    </g>
                </g>
                <g id="Group_21224">
                    <g id="Group_21223">
                        <path id="Path_24593" d="M538.332 307.894a9.982 9.982 0 0 1-2.28-.6c-1.384-.443-3.278-1.117-5.333-1.951s-3.888-1.653-5.2-2.271a10.484 10.484 0 0 1-2.081-1.105 10.747 10.747 0 0 1 2.227.767l5.252 2.126 5.261 2.087a11.317 11.317 0 0 1 2.154.947z" class="cls-7"/>
                    </g>
                </g>
                <g id="Group_21226">
                    <g id="Group_21225">
                        <path id="Path_24594" d="M542.611 291.359a7.93 7.93 0 0 1 .516 2.009c.246 1.254.532 3 .775 4.932s.394 3.7.465 4.972a7.9 7.9 0 0 1-.005 2.074 67.968 67.968 0 0 1-.977-6.981 68.251 68.251 0 0 1-.774-7.006z" class="cls-7"/>
                    </g>
                </g>
                <g id="Group_21228">
                    <g id="Group_21227">
                        <path id="Path_24595" d="M562.244 299.507c.06.146-2.566 1.276-5.524 3.171s-5.3 3.552-5.394 3.419a6.664 6.664 0 0 1 1.41-1.248c.915-.71 2.2-1.666 3.707-2.612a19.372 19.372 0 0 1 5.801-2.73z" class="cls-7"/>
                    </g>
                </g>
            </g>
        </g>
        <g id="Plus">
            <g id="Group_21236">
                <g id="Group_21231">
                    <g id="Group_21230">
                        <path id="Path_24596" d="M212.6 316.047a28.183 28.183 0 0 0-.665-4.4 17.367 17.367 0 0 0-2.024-4.784 17.944 17.944 0 0 0-21.549-7.623 16.79 16.79 0 0 0-4.525 2.44 16.34 16.34 0 0 0-3.78 3.8 17.81 17.81 0 0 0 0 21.142 16.349 16.349 0 0 0 3.78 3.8 16.823 16.823 0 0 0 4.526 2.44 18 18 0 0 0 21.55-7.624 17.361 17.361 0 0 0 2.023-4.784 28.164 28.164 0 0 0 .665-4.4 1.219 1.219 0 0 1 .012.294l-.018.865a8.341 8.341 0 0 1-.117 1.4 12.706 12.706 0 0 1-.346 1.891 17.136 17.136 0 0 1-1.969 4.884 18.29 18.29 0 0 1-12.314 8.694 18.369 18.369 0 0 1-9.649-.768 17.244 17.244 0 0 1-4.659-2.491 16.818 16.818 0 0 1-3.9-3.9 18.275 18.275 0 0 1 0-21.746 20.683 20.683 0 0 1 1.806-2.129 20.45 20.45 0 0 1 2.089-1.769 17.238 17.238 0 0 1 4.658-2.491 18.375 18.375 0 0 1 9.648-.768 18.285 18.285 0 0 1 12.314 8.693 17.141 17.141 0 0 1 1.97 4.884 12.741 12.741 0 0 1 .346 1.892 8.334 8.334 0 0 1 .117 1.4l.018.865a1.226 1.226 0 0 1-.007.293z" class="cls-7"/>
                    </g>
                </g>
                <g id="Group_21233">
                    <g id="Group_21232">
                        <path id="Path_24597" d="M194.465 325.156a79.757 79.757 0 0 1-.261-9.109 79.743 79.743 0 0 1 .261-9.109 79.893 79.893 0 0 1 .26 9.109 79.908 79.908 0 0 1-.26 9.109z" class="cls-7"/>
                    </g>
                </g>
                <g id="Group_21235">
                    <g id="Group_21234">
                        <path id="Path_24598" d="M203.573 316.047a79.878 79.878 0 0 1-9.108.26 79.889 79.889 0 0 1-9.109-.26 79.9 79.9 0 0 1 9.109-.26 79.886 79.886 0 0 1 9.108.26z" class="cls-7"/>
                    </g>
                </g>
            </g>
        </g>
        <g id="Search_Engine">
            <g id="Group_21298">
                <g id="Group_21248">
                    <g id="Group_21238">
                        <g id="Group_21237">
                            <path id="Path_24599" d="M490.951 374.686c-.121.077-12.683-19.35-28.054-43.387s-27.738-43.6-27.617-43.672 12.68 19.346 28.056 43.391 27.736 43.59 27.615 43.668z" class="cls-7"/>
                        </g>
                    </g>
                    <g id="Group_21247">
                        <g id="Group_21242">
                            <g id="Group_21239">
                                <circle id="Ellipse_225" cx="29.149" cy="29.149" r="29.149" class="cls-6" transform="translate(467.257 358.809)"/>
                            </g>
                            <g id="Group_21241">
                                <g id="Group_21240">
                                    <path id="Path_24600" d="M467.257 387.958s-.01-.16 0-.473l.044-1.389.039-1.024c.033-.375.1-.782.164-1.225a20.877 20.877 0 0 1 .569-3.031 27.616 27.616 0 0 1 3.179-7.816 29.317 29.317 0 0 1 19.734-13.885 27.182 27.182 0 0 1 3.712-.441c.633-.024 1.271-.087 1.914-.079l1.944.1a12.8 12.8 0 0 1 1.962.209c.654.107 1.319.182 1.977.317a31.083 31.083 0 0 1 3.922 1.141 30.579 30.579 0 0 1 3.836 1.678c.621.335 1.217.726 1.832 1.09a14.95 14.95 0 0 1 1.776 1.219 26.9 26.9 0 0 1 6.224 6.235 28.458 28.458 0 0 1 4.21 8.1 29.106 29.106 0 0 1 0 18.56 28.449 28.449 0 0 1-4.21 8.1 26.909 26.909 0 0 1-6.225 6.236 14.941 14.941 0 0 1-1.776 1.219c-.615.365-1.211.755-1.832 1.091a30.588 30.588 0 0 1-3.837 1.678 31.132 31.132 0 0 1-3.922 1.141c-.658.135-1.324.21-1.978.317a12.8 12.8 0 0 1-1.962.209l-1.944.1c-.643.008-1.281-.055-1.914-.079a27.3 27.3 0 0 1-3.712-.441 29.324 29.324 0 0 1-19.734-13.886 27.621 27.621 0 0 1-3.181-7.818 20.716 20.716 0 0 1-.569-3.031c-.059-.443-.132-.85-.164-1.225l-.039-1.024-.044-1.388c-.007-.313 0-.472 0-.472s.026.159.05.471c.023.334.055.793.1 1.383l.064 1.017c.04.373.121.777.188 1.216a21.164 21.164 0 0 0 .611 3 27.847 27.847 0 0 0 3.235 7.718 29.1 29.1 0 0 0 19.563 13.61 27.026 27.026 0 0 0 3.658.422c.624.021 1.253.081 1.886.071l1.914-.1a12.408 12.408 0 0 0 1.931-.211c.643-.107 1.3-.183 1.945-.317a30.583 30.583 0 0 0 3.855-1.133 30.188 30.188 0 0 0 3.77-1.659c.61-.331 1.195-.717 1.8-1.075a14.774 14.774 0 0 0 1.744-1.2 26.47 26.47 0 0 0 6.11-6.139 27.984 27.984 0 0 0 4.129-7.962 28.634 28.634 0 0 0 0-18.233 27.991 27.991 0 0 0-4.129-7.959 26.43 26.43 0 0 0-6.109-6.137 14.715 14.715 0 0 0-1.743-1.2c-.6-.359-1.19-.745-1.8-1.076a30.246 30.246 0 0 0-3.769-1.658 30.738 30.738 0 0 0-3.854-1.133c-.648-.134-1.3-.209-1.946-.316a12.391 12.391 0 0 0-1.93-.212l-1.914-.1c-.633-.01-1.262.05-1.885.072a26.7 26.7 0 0 0-3.658.421 29.1 29.1 0 0 0-19.568 13.595 27.8 27.8 0 0 0-3.235 7.718 21.065 21.065 0 0 0-.612 3c-.067.439-.148.843-.188 1.216l-.064 1.018c-.041.59-.073 1.049-.1 1.383-.018.318-.044.476-.044.476z" class="cls-7"/>
                                </g>
                            </g>
                        </g>
                        <g id="Group_21246">
                            <g id="Group_21243">
                                <path id="Path_24601" d="M488.457 377.247l-3.991 22.806 11.94-1.643 11.94 1.643-4.8-22.806z" class="cls-7"/>
                            </g>
                            <g id="Group_21245">
                                <g id="Group_21244">
                                    <path id="Path_24602" d="M501.45 377.546c-.086.028-.326-.811-.958-2.022a6.354 6.354 0 0 0-1.434-1.85 4.412 4.412 0 0 0-1.166-.679 4.7 4.7 0 0 0-1.43-.249 4.947 4.947 0 0 0-2.722.658 4.34 4.34 0 0 0-1.492 1.744c-.6 1.22-.8 2.077-.887 2.049a5.519 5.519 0 0 1 .554-2.207 4.481 4.481 0 0 1 1.56-1.987 5.208 5.208 0 0 1 2.993-.778 5 5 0 0 1 1.6.292 4.756 4.756 0 0 1 1.3.793 6.177 6.177 0 0 1 1.451 2.051 5.7 5.7 0 0 1 .631 2.185z" class="cls-7"/>
                                </g>
                            </g>
                        </g>
                    </g>
                </g>
                <g id="Group_21257">
                    <g id="Group_21250">
                        <g id="Group_21249">
                            <path id="Path_24603" d="M380.088 376.639c-.144 0-.261-20.074-.261-44.83s.117-44.833.261-44.833.26 20.069.26 44.833-.117 44.83-.26 44.83z" class="cls-7"/>
                        </g>
                    </g>
                    <g id="Group_21256">
                        <g id="Group_21254">
                            <g id="Group_21251">
                                <circle id="Ellipse_226" cx="29.149" cy="29.149" r="29.149" class="cls-6" transform="translate(350.343 359.46)"/>
                            </g>
                            <g id="Group_21253">
                                <g id="Group_21252">
                                    <path id="Path_24604" d="M350.343 388.608s-.01-.159 0-.472l.044-1.389.039-1.024c.033-.375.106-.782.165-1.225a20.727 20.727 0 0 1 .568-3.031 27.646 27.646 0 0 1 3.182-7.818 29.316 29.316 0 0 1 19.735-13.885 27.149 27.149 0 0 1 3.711-.441c.633-.024 1.272-.087 1.915-.079l1.944.1a12.8 12.8 0 0 1 1.961.209c.654.107 1.32.182 1.978.317a31.069 31.069 0 0 1 3.921 1.141 30.515 30.515 0 0 1 3.836 1.678c.621.335 1.218.726 1.833 1.09a15.014 15.014 0 0 1 1.775 1.219 26.848 26.848 0 0 1 6.224 6.235 28.445 28.445 0 0 1 4.21 8.1 29.1 29.1 0 0 1 0 18.559 28.456 28.456 0 0 1-4.21 8.1 26.932 26.932 0 0 1-6.224 6.236 15.165 15.165 0 0 1-1.777 1.22c-.615.363-1.211.754-1.832 1.09a30.592 30.592 0 0 1-3.837 1.678 31.083 31.083 0 0 1-3.922 1.141c-.658.135-1.323.21-1.978.317a12.784 12.784 0 0 1-1.962.209l-1.944.1c-.643.008-1.281-.055-1.914-.079a27.3 27.3 0 0 1-3.712-.441 29.324 29.324 0 0 1-19.734-13.886 27.621 27.621 0 0 1-3.181-7.818 20.876 20.876 0 0 1-.569-3.031c-.058-.443-.131-.85-.164-1.225l-.039-1.024-.044-1.388c-.007-.313 0-.473 0-.473s.026.16.05.472c.023.334.055.793.1 1.382l.064 1.018c.04.373.121.777.188 1.216a21.179 21.179 0 0 0 .612 3 27.793 27.793 0 0 0 3.234 7.717 29.107 29.107 0 0 0 19.563 13.611 26.9 26.9 0 0 0 3.659.421c.623.021 1.252.082 1.885.072l1.914-.1a12.4 12.4 0 0 0 1.931-.212c.643-.107 1.3-.182 1.945-.316a30.752 30.752 0 0 0 3.855-1.133 30.188 30.188 0 0 0 3.77-1.659c.61-.331 1.195-.717 1.8-1.076a14.729 14.729 0 0 0 1.744-1.2 26.44 26.44 0 0 0 6.109-6.139 28 28 0 0 0 4.129-7.962 28.634 28.634 0 0 0 0-18.233 27.954 27.954 0 0 0-4.129-7.959 26.431 26.431 0 0 0-6.109-6.137 14.633 14.633 0 0 0-1.743-1.2c-.6-.359-1.189-.745-1.8-1.076a30.1 30.1 0 0 0-3.769-1.658 30.52 30.52 0 0 0-3.854-1.133c-.647-.134-1.3-.21-1.945-.317a12.521 12.521 0 0 0-1.931-.211l-1.914-.1c-.633-.01-1.261.05-1.885.071a27.02 27.02 0 0 0-3.658.421 29.1 29.1 0 0 0-19.564 13.61 27.834 27.834 0 0 0-3.235 7.718 21.178 21.178 0 0 0-.612 3c-.067.439-.148.843-.188 1.216l-.064 1.018c-.041.59-.073 1.049-.1 1.383-.024.306-.05.465-.05.465z" class="cls-7"/>
                                </g>
                            </g>
                        </g>
                        <g id="Group_21255">
                            <path id="Path_24605" d="M379.492 375.553l-12.646 11.488v14.568h9.848v-8.729h6.267v8.729h9.177v-14.568z" class="cls-7"/>
                        </g>
                    </g>
                </g>
                <g id="Group_21284">
                    <g id="Group_21259">
                        <g id="Group_21258">
                            <path id="Path_24606" d="M267.251 375.7c-.122-.078 12.429-19.922 28.029-44.317s28.35-44.118 28.471-44.04-12.427 19.917-28.032 44.321-28.347 44.116-28.468 44.036z" class="cls-7"/>
                        </g>
                    </g>
                    <g id="Group_21283">
                        <g id="Group_21263">
                            <g id="Group_21260">
                                <circle id="Ellipse_227" cx="29.149" cy="29.149" r="29.149" class="cls-6" transform="translate(233.381 359.09)"/>
                            </g>
                            <g id="Group_21262">
                                <g id="Group_21261">
                                    <path id="Path_24607" d="M291.679 388.239s-.026-.16-.051-.472c-.023-.334-.054-.793-.1-1.383l-.064-1.018c-.041-.373-.121-.776-.188-1.216a21.373 21.373 0 0 0-.612-3 27.834 27.834 0 0 0-3.235-7.718 29.11 29.11 0 0 0-19.564-13.609 26.855 26.855 0 0 0-3.658-.421c-.624-.021-1.252-.082-1.886-.072l-1.914.1a12.4 12.4 0 0 0-1.93.212c-.643.107-1.3.182-1.945.316a30.689 30.689 0 0 0-3.854 1.133 30.326 30.326 0 0 0-3.77 1.658c-.61.332-1.195.717-1.8 1.076a14.766 14.766 0 0 0-1.744 1.2 26.453 26.453 0 0 0-6.108 6.137 27.987 27.987 0 0 0-4.13 7.96 28.649 28.649 0 0 0 0 18.232 27.991 27.991 0 0 0 4.13 7.963 26.411 26.411 0 0 0 6.109 6.138 14.657 14.657 0 0 0 1.744 1.2c.6.359 1.19.744 1.8 1.076a30.112 30.112 0 0 0 3.77 1.658 30.5 30.5 0 0 0 3.855 1.133c.647.134 1.3.21 1.945.317a12.4 12.4 0 0 0 1.93.211l1.915.1c.633.01 1.261-.05 1.885-.071a26.889 26.889 0 0 0 3.659-.422 29.1 29.1 0 0 0 19.563-13.61 27.8 27.8 0 0 0 3.234-7.718 21.2 21.2 0 0 0 .612-3c.067-.44.147-.844.188-1.216l.064-1.018c.041-.59.072-1.049.1-1.383.025-.311.051-.471.051-.471s.01.16 0 .472l-.045 1.388q-.016.462-.039 1.024c-.032.376-.1.782-.164 1.225a20.739 20.739 0 0 1-.568 3.032 27.617 27.617 0 0 1-3.181 7.817 29.316 29.316 0 0 1-19.734 13.886 27.14 27.14 0 0 1-3.712.441c-.633.024-1.271.087-1.915.079l-1.944-.1a12.69 12.69 0 0 1-1.962-.209c-.654-.106-1.319-.182-1.977-.317a30.917 30.917 0 0 1-3.922-1.141 30.591 30.591 0 0 1-3.837-1.678c-.621-.336-1.218-.726-1.833-1.09a15.242 15.242 0 0 1-1.776-1.22 26.879 26.879 0 0 1-6.224-6.236 28.45 28.45 0 0 1-4.21-8.1 29.106 29.106 0 0 1 0-18.56 28.433 28.433 0 0 1 4.21-8.1 26.923 26.923 0 0 1 6.223-6.235 15.356 15.356 0 0 1 1.776-1.219c.615-.364 1.211-.754 1.833-1.09a30.52 30.52 0 0 1 3.836-1.678 31.07 31.07 0 0 1 3.921-1.141c.658-.134 1.323-.21 1.978-.316a12.67 12.67 0 0 1 1.961-.21l1.944-.1c.643-.008 1.281.055 1.914.079a27.454 27.454 0 0 1 3.712.441 29.324 29.324 0 0 1 19.735 13.885 27.621 27.621 0 0 1 3.181 7.818 20.6 20.6 0 0 1 .569 3.032c.059.442.132.849.164 1.225q.023.563.039 1.024l.045 1.388c.011.322.001.482.001.482z" class="cls-7"/>
                                </g>
                            </g>
                        </g>
                        <g id="Group_21282">
                            <g id="Group_21264">
                                <path id="Rectangle_8091" d="M0 0H22.886V30.349H0z" class="cls-7" transform="translate(250.916 373.064)"/>
                            </g>
                            <g id="Group_21281">
                                <g id="Group_21266">
                                    <g id="Group_21265">
                                        <path id="Path_24608" d="M263.474 377.912a27.288 27.288 0 0 1-7.516 0 27.187 27.187 0 0 1 7.516 0z" class="cls-9"/>
                                    </g>
                                </g>
                                <g id="Group_21268">
                                    <g id="Group_21267">
                                        <path id="Path_24609" d="M270.1 382.18a54.351 54.351 0 0 1-7.515.261 54.349 54.349 0 0 1-7.516-.261 54.647 54.647 0 0 1 7.516-.26 54.649 54.649 0 0 1 7.515.26z" class="cls-9"/>
                                    </g>
                                </g>
                                <g id="Group_21270">
                                    <g id="Group_21269">
                                        <path id="Path_24610" d="M270.1 384.775a54.351 54.351 0 0 1-7.515.261 54.349 54.349 0 0 1-7.516-.261 54.462 54.462 0 0 1 7.516-.26 54.464 54.464 0 0 1 7.515.26z" class="cls-9"/>
                                    </g>
                                </g>
                                <g id="Group_21272">
                                    <g id="Group_21271">
                                        <path id="Path_24611" d="M270.1 387.37a54.351 54.351 0 0 1-7.515.261 54.349 54.349 0 0 1-7.516-.261 54.459 54.459 0 0 1 7.516-.26 54.461 54.461 0 0 1 7.515.26z" class="cls-9"/>
                                    </g>
                                </g>
                                <g id="Group_21274">
                                    <g id="Group_21273">
                                        <path id="Path_24612" d="M270.1 389.965a54.455 54.455 0 0 1-7.515.26 54.453 54.453 0 0 1-7.516-.26 54.459 54.459 0 0 1 7.516-.26 54.461 54.461 0 0 1 7.515.26z" class="cls-9"/>
                                    </g>
                                </g>
                                <g id="Group_21276">
                                    <g id="Group_21275">
                                        <path id="Path_24613" d="M270.1 392.56a54.455 54.455 0 0 1-7.515.26 54.453 54.453 0 0 1-7.516-.26 54.453 54.453 0 0 1 7.516-.26 54.455 54.455 0 0 1 7.515.26z" class="cls-9"/>
                                    </g>
                                </g>
                                <g id="Group_21278">
                                    <g id="Group_21277">
                                        <path id="Path_24614" d="M270.1 395.155a54.455 54.455 0 0 1-7.515.26 54.453 54.453 0 0 1-7.516-.26 54.352 54.352 0 0 1 7.516-.261 54.355 54.355 0 0 1 7.515.261z" class="cls-9"/>
                                    </g>
                                </g>
                                <g id="Group_21280">
                                    <g id="Group_21279">
                                        <path id="Path_24615" d="M270.1 397.75a54.455 54.455 0 0 1-7.515.26 54.453 54.453 0 0 1-7.516-.26 54.352 54.352 0 0 1 7.516-.261 54.355 54.355 0 0 1 7.515.261z" class="cls-9"/>
                                    </g>
                                </g>
                            </g>
                        </g>
                    </g>
                </g>
                <g id="Group_21297">
                    <g id="Group_21294">
                        <g id="Group_21292">
                            <g id="Group_21285">
                                <rect id="Rectangle_8092" width="305.653" height="50.189" class="cls-6" rx="23.79" transform="translate(232.317 237.901)"/>
                            </g>
                            <g id="Group_21286">
                                <path id="Path_24616" d="M470.251 237.445v50.645h42.7a25.322 25.322 0 0 0 25.322-25.322 25.322 25.322 0 0 0-25.322-25.323z" class="cls-8"/>
                            </g>
                            <g id="Group_21291">
                                <g id="Group_21288">
                                    <g id="Group_21287">
                                        <path id="Path_24617" d="M509.99 261.361a22.588 22.588 0 0 0-.432-2.585 10.662 10.662 0 0 0-3.9-5.767 10.482 10.482 0 0 0-9.917-1.464 10.492 10.492 0 0 0-4.844 3.648 10.4 10.4 0 0 0 0 12.336 10.487 10.487 0 0 0 4.845 3.648 10.476 10.476 0 0 0 9.918-1.464 10.661 10.661 0 0 0 3.9-5.766 22.58 22.58 0 0 0 .432-2.586 8.276 8.276 0 0 1-.236 2.635 10.643 10.643 0 0 1-3.874 6.01 10.753 10.753 0 0 1-4.568 2.069 10.907 10.907 0 0 1-5.737-.447 10.916 10.916 0 0 1-5.092-3.8 10.865 10.865 0 0 1 0-12.94 10.92 10.92 0 0 1 5.091-3.8 10.916 10.916 0 0 1 5.737-.447 10.749 10.749 0 0 1 4.567 2.07 10.64 10.64 0 0 1 3.875 6.009 8.276 8.276 0 0 1 .235 2.641z" class="cls-10"/>
                                    </g>
                                </g>
                                <g id="Group_21290">
                                    <g id="Group_21289">
                                        <path id="Path_24618" d="M519.919 276.318a104.8 104.8 0 0 1-12.019-8.607 105.141 105.141 0 0 1 12.019 8.607z" class="cls-10"/>
                                    </g>
                                </g>
                            </g>
                        </g>
                        <g id="Group_21293">
                            <path id="Rectangle_8093" d="M0 0H186.849V10.742H0z" class="cls-4" transform="translate(261.382 258.295)"/>
                        </g>
                    </g>
                    <g id="Group_21296">
                        <g id="Group_21295">
                            <path id="Path_24619" d="M514.18 288.09s.585-.048 1.727-.114a15.7 15.7 0 0 0 2.112-.264 21.865 21.865 0 0 0 2.867-.651 24.221 24.221 0 0 0 7.326-3.677l.994-.748c.321-.274.633-.572.958-.865a19.691 19.691 0 0 0 1.9-1.946c.648-.678 1.163-1.506 1.776-2.291l.786-1.3.4-.665.34-.709a22.966 22.966 0 0 0 2.1-6.321l.266-1.76.095-1.819c.054-1.225.041-2.5 0-3.781a23.637 23.637 0 0 0-22.916-23.079c-6.824-.067-14.057-.007-21.642-.018l-237.145.076a23.675 23.675 0 0 0-15.6 5.938 23.284 23.284 0 0 0-7.725 14.558 16.1 16.1 0 0 0-.169 2.081c-.049.692-.057 1.393-.049 2.1a40.547 40.547 0 0 0 .167 4.169 22.765 22.765 0 0 0 2.366 7.877 23.362 23.362 0 0 0 19.431 12.876c1.33.1 2.682.083 4.029.08h19.944l30.818.009 106.615.056 71.876.083 19.541.049 5.082.025c1.145.009 1.732.027 1.732.027s-.587.018-1.732.027l-5.082.025-19.541.049-71.876.083-106.615.056-30.818.009h-19.947c-1.346 0-2.693.017-4.063-.08a23.867 23.867 0 0 1-19.856-13.15 23.286 23.286 0 0 1-2.421-8.05 41.311 41.311 0 0 1-.17-4.228c-.008-.7 0-1.4.048-2.118a16.621 16.621 0 0 1 .173-2.126 23.807 23.807 0 0 1 7.893-14.881 24.2 24.2 0 0 1 15.951-6.07l237.145.077c7.589.022 14.808-.026 21.652.055a23.914 23.914 0 0 1 23.147 23.4c.035 1.3.045 2.552-.013 3.793l-.1 1.836-.274 1.776a23.182 23.182 0 0 1-2.136 6.372l-.346.714-.405.669-.8 1.306c-.621.789-1.143 1.621-1.8 2.3a19.81 19.81 0 0 1-1.918 1.951c-.329.294-.645.592-.968.867l-1.005.748a24.2 24.2 0 0 1-7.388 3.653 21.738 21.738 0 0 1-2.885.629 15.085 15.085 0 0 1-2.12.238c-1.147.062-1.732.074-1.732.074z" class="cls-7"/>
                        </g>
                    </g>
                </g>
            </g>
        </g>
        <g id="Character">
            <g id="Group_21349">
                <g id="Group_21305">
                    <g id="Group_21300">
                        <g id="Group_21299">
                            <path id="Path_24620" d="M381.753 256.887c-.91-1.06-1-1.957 1.045-2.141 4.512-.406 7.836-2.376 8.36-3.516s-.906-2.255-2.129-1.57a16.9 16.9 0 0 1-4.394 1.244 11.029 11.029 0 0 1-3.661.05c-1.051-.165-1.974-.342-2.8-.517 0 0-4.775-1.029-6.837-2.638l-10.1 10.793 4.736 5.352a7.192 7.192 0 0 0 6.325 2.981c4.064-.4 9.528-3.318 9.528-3.318.739-1.135 7.282 2.9 9.389 4.413 2.081 1.5 3.664 1.132 3.585-.323-.055-.991-6.393-5.775-8.512-7.224a26.57 26.57 0 0 1-4.537-3.586" class="cls-11"/>
                        </g>
                    </g>
                    <g id="Group_21302">
                        <g id="Group_21301">
                            <path id="Path_24621" d="M375.817 266.264c.011.061-.291.191-.813.177a3.48 3.48 0 0 1-3.064-2.318c-.156-.5-.114-.824-.052-.83.144-.033.391 1.188 1.549 2.035a6.853 6.853 0 0 0 2.38.936z" class="cls-12"/>
                        </g>
                    </g>
                    <g id="Group_21304">
                        <g id="Group_21303">
                            <path id="Path_24622" d="M379.818 264.688c.007.063-.287.172-.785.14a3.448 3.448 0 0 1-2.912-2.265c-.153-.475-.12-.787-.057-.795.145-.035.413 1.116 1.5 1.939a7.737 7.737 0 0 0 2.254.981z" class="cls-12"/>
                        </g>
                    </g>
                </g>
                <g id="Group_21306">
                    <path id="Path_24623" d="M390.706 152.429c.422 8.862 11.23 21 19.269 22.965 4.226 1.032 9.089.546 12.437 3.385 5.743 4.87 2.384 14.964 6.258 21.5 2.382 4.016 7.111 5.986 9.79 9.8 4.451 6.337 1.463 15.916-4.611 20.635s-14.166 5.622-21.779 5.425c-16.746-.433-33.9-5.755-46-17.626-5.687-5.575-27.936-22.793-20.177-63.6" class="cls-7"/>
                </g>
                <g id="Group_21323">
                    <path id="Path_24624" d="M451.15 215.835l-63.671-18.9a40.381 40.381 0 0 0-9.273-2.791l-21.5.144a20.9 20.9 0 0 0-8.246 1.725l-57.955 19.25c-4.289 1.356-7.252 5.755-7.252 10.766 0 6.176 4.453 11.183 9.945 11.183h26.762l-.117.393 93.085.349v-.036l35.527.08c5.492 0 9.944-5.055 9.944-11.291.001-5.061-2.96-9.507-7.249-10.872z" class="cls-13"/>
                    <g id="Group_21308">
                        <g id="Group_21307">
                            <path id="Path_24625" d="M438.39 222.717a2.362 2.362 0 0 1-.578-.029l-1.64-.186c-1.421-.18-3.481-.41-6.029-.655a181.552 181.552 0 0 0-39.917.523c-2.54.312-4.594.6-6.009.812l-1.635.229a2.444 2.444 0 0 1-.576.045 2.4 2.4 0 0 1 .558-.148l1.619-.326c1.407-.279 3.456-.618 6-.977a160.023 160.023 0 0 1 40-.524c2.549.293 4.606.578 6.02.82l1.627.283a2.461 2.461 0 0 1 .56.133z" class="cls-7"/>
                        </g>
                    </g>
                    <g id="Group_21310" class="cls-14">
                        <g id="Group_21309">
                            <path id="Path_24626" d="M423.449 207.247a1.046 1.046 0 0 1-.178.214l-.561.592c-.5.511-1.244 1.265-2.251 2.183a36.216 36.216 0 0 1-3.869 3.116 19.153 19.153 0 0 1-5.945 2.833 15.172 15.172 0 0 1-7.956-.158 39.441 39.441 0 0 1-8.376-3.7 50.9 50.9 0 0 0-9.07-4.252 13.992 13.992 0 0 0-10.371.534c-3.35 1.51-6.2 3.813-9.316 5.473-.771.43-1.587.761-2.377 1.118a25 25 0 0 1-2.444.815 23.729 23.729 0 0 1-4.9.846 25.267 25.267 0 0 1-16.289-4.48 44.461 44.461 0 0 1-4.92-4.369 23.977 23.977 0 0 0-3.809-3.114 10.572 10.572 0 0 0-3.9-1.463 5.983 5.983 0 0 1 1.087.129 9.179 9.179 0 0 1 2.92 1.16 23.37 23.37 0 0 1 3.9 3.076 45.663 45.663 0 0 0 4.932 4.28 25.035 25.035 0 0 0 16.043 4.3 23.278 23.278 0 0 0 4.8-.846 24.936 24.936 0 0 0 2.39-.8c.772-.353 1.567-.676 2.324-1.1 3.061-1.635 5.909-3.947 9.346-5.5a14.487 14.487 0 0 1 10.732-.546 50.821 50.821 0 0 1 9.15 4.318 39.434 39.434 0 0 0 8.262 3.706 14.871 14.871 0 0 0 7.749.218 19.088 19.088 0 0 0 5.874-2.718 38.422 38.422 0 0 0 3.9-3.026c1.024-.892 1.787-1.621 2.313-2.107l.6-.554a1.181 1.181 0 0 1 .21-.178z" class="cls-6"/>
                        </g>
                    </g>
                    <g id="Group_21311" class="cls-15">
                        <path id="Path_24627" d="M324.51 222.589l40.246 7.587-4.649 7.572-1.224.019z"/>
                    </g>
                    <g id="Group_21313" class="cls-14">
                        <g id="Group_21312">
                            <path id="Path_24628" d="M446.338 214.637a2.76 2.76 0 0 1 .02.617 13.459 13.459 0 0 1-.177 1.761 15.258 15.258 0 0 1-10.024 11.853 15.487 15.487 0 0 1-5.664.885 25.791 25.791 0 0 1-6.038-1.1c-2.016-.568-3.952-1.2-5.864-1.581a17.026 17.026 0 0 0-5.562-.289 17.765 17.765 0 0 0-8.678 3.554 17.438 17.438 0 0 0-4.311 4.711l-.521.868-.332.663a2.829 2.829 0 0 1-.3.536 2.677 2.677 0 0 1 .208-.579c.086-.2.182-.432.291-.691l.483-.9a16.769 16.769 0 0 1 4.261-4.9 17.867 17.867 0 0 1 8.846-3.739 17.31 17.31 0 0 1 5.72.265c1.951.387 3.9 1.016 5.9 1.58a25.713 25.713 0 0 0 5.916 1.1 15.248 15.248 0 0 0 12.942-6.415 15.833 15.833 0 0 0 2.529-5.851c.303-1.499.302-2.352.355-2.348z" class="cls-6"/>
                        </g>
                    </g>
                    <g id="Group_21321">
                        <g id="Group_21314">
                            <path id="Path_24629" d="M290.563 235.918s72.758 32.105 72.383 31.376 11.554-21.785 11.554-21.785l-58.949-29.134z" class="cls-13"/>
                        </g>
                        <g id="Group_21316">
                            <g id="Group_21315">
                                <path id="Path_24630" d="M323.961 220.532a9.716 9.716 0 0 1 1.5.628l4 1.887c3.371 1.613 8.012 3.874 13.124 6.4s9.73 4.841 13.06 6.539l3.932 2.036a9.785 9.785 0 0 1 1.412.811 9.567 9.567 0 0 1-1.5-.627l-4-1.887c-3.371-1.613-8.013-3.875-13.128-6.4s-9.728-4.841-13.059-6.54l-3.932-2.035a9.608 9.608 0 0 1-1.409-.812z" class="cls-7"/>
                            </g>
                        </g>
                        <g id="Group_21318" class="cls-14">
                            <g id="Group_21317">
                                <path id="Path_24631" d="M339.939 230.271a6.255 6.255 0 0 1-.677 2.158 10.187 10.187 0 0 1-4.339 4.337 13.328 13.328 0 0 1-4.041 1.439 15.931 15.931 0 0 1-4.92.058 37.178 37.178 0 0 1-10.611-3.56 55.44 55.44 0 0 0-10.319-4.07 18.557 18.557 0 0 0-4.766-.552 14.869 14.869 0 0 0-4.115.7 11.239 11.239 0 0 0-5.077 3.18 20.745 20.745 0 0 0-1.318 1.809 6.738 6.738 0 0 1 1.163-1.94 11.075 11.075 0 0 1 5.117-3.4 14.989 14.989 0 0 1 4.215-.777 18.68 18.68 0 0 1 4.89.517 53.71 53.71 0 0 1 10.429 4.065 37.689 37.689 0 0 0 10.456 3.557 15.743 15.743 0 0 0 4.781-.008 13.16 13.16 0 0 0 3.941-1.338 10.281 10.281 0 0 0 4.334-4.106 17.148 17.148 0 0 0 .857-2.069z" class="cls-6"/>
                            </g>
                        </g>
                        <g id="Group_21320" class="cls-14">
                            <g id="Group_21319">
                                <path id="Path_24632" d="M370.83 252.277c-.015.1-1.614-.17-4.213-.212a35.317 35.317 0 0 0-4.55.231 34.79 34.79 0 0 0-10.688 3.027 35.492 35.492 0 0 0-4 2.19c-2.191 1.4-3.412 2.465-3.475 2.389a4.751 4.751 0 0 1 .813-.8 23.635 23.635 0 0 1 2.459-1.9 31.1 31.1 0 0 1 3.993-2.315 32.376 32.376 0 0 1 10.842-3.071 30.915 30.915 0 0 1 4.613-.122 23.413 23.413 0 0 1 3.09.327 4.711 4.711 0 0 1 1.116.256z" class="cls-6"/>
                            </g>
                        </g>
                    </g>
                    <g id="Group_21322" class="cls-15">
                        <path id="Path_24633" d="M379.8 194.006c-1.2 3.366.6 6.992 2.355 10.107a27.454 27.454 0 0 0 4.22 6.123 9.238 9.238 0 0 0 6.616 2.973c3.266-.107 6.191-2.519 9.454-2.331 2.219.128 4.169 1.439 6.011 2.683a47.557 47.557 0 0 0 10.085 5.587 18.111 18.111 0 0 0 11.338.712 11.3 11.3 0 0 0 7.846-7.767"/>
                    </g>
                </g>
                <g id="Group_21346">
                    <g id="Group_21339">
                        <g id="Group_21338">
                            <g id="Group_21324">
                                <path id="Path_24634" d="M380.075 193.078c.167-3.917.378-7.462.378-7.462s8.754-1.1 9.132-10.039-.512-29.511-.512-29.511l-16.113-7.738-17.335 13.966 2.719 41.037a10.882 10.882 0 0 0 11.356 10.152 10.884 10.884 0 0 0 10.375-10.405z" class="cls-11"/>
                            </g>
                            <g id="Group_21328">
                                <g id="Group_21325">
                                    <path id="Path_24635" d="M387.563 162.223a1.114 1.114 0 1 1-1.133-1.124 1.128 1.128 0 0 1 1.133 1.124z" class="cls-7"/>
                                </g>
                                <g id="Group_21327">
                                    <g id="Group_21326">
                                        <path id="Path_24636" d="M388.644 159.837c-.141.15-.975-.554-2.175-.6-1.2-.063-2.09.563-2.217.4-.063-.072.082-.347.47-.631a2.895 2.895 0 0 1 3.506.158c.364.319.485.606.416.673z" class="cls-7"/>
                                    </g>
                                </g>
                            </g>
                            <g id="Group_21332">
                                <g id="Group_21329">
                                    <path id="Path_24637" d="M374.278 162.223a1.114 1.114 0 1 1-1.134-1.124 1.128 1.128 0 0 1 1.134 1.124z" class="cls-7"/>
                                </g>
                                <g id="Group_21331">
                                    <g id="Group_21330">
                                        <path id="Path_24638" d="M375.359 160.067c-.141.15-.976-.553-2.175-.6-1.2-.064-2.09.562-2.217.4-.063-.072.081-.347.47-.631a2.9 2.9 0 0 1 3.506.158c.363.319.485.606.416.673z" class="cls-7"/>
                                    </g>
                                </g>
                            </g>
                            <g id="Group_21334">
                                <g id="Group_21333">
                                    <path id="Path_24639" d="M379.863 170.381a7.294 7.294 0 0 1 1.954-.3c.307-.022.6-.075.654-.3a1.8 1.8 0 0 0-.19-.981l-.867-2.534a46.1 46.1 0 0 1-1.932-6.616 45.811 45.811 0 0 1 2.418 6.45l.828 2.548a2.034 2.034 0 0 1 .139 1.293.763.763 0 0 1-.511.46 1.921 1.921 0 0 1-.522.056 7.35 7.35 0 0 1-1.971-.076z" class="cls-7"/>
                                </g>
                            </g>
                            <g id="Group_21335">
                                <path id="Path_24640" d="M375.924 171.613c-1.227-.805 3.385 1.989 5.83 1.947a3.277 3.277 0 0 1-3.953 1.225c-2.577-1.064-1.877-3.172-1.877-3.172z" class="cls-6"/>
                            </g>
                            <g id="Group_21336">
                                <path id="Path_24641" d="M380.453 185.616a21.32 21.32 0 0 1-11.592-3.795s2.725 6.509 11.44 5.988z" class="cls-12"/>
                            </g>
                            <g id="Group_21337">
                                <path id="Path_24642" d="M346.223 161.1c-.031 7.734-2.056 28.184 12.04 31.02l-.512-28.164s13.65-6.436 15.955-19.842l.083.077c.875 2.023 2.432 6.369 1.486 9.908l12.782 3.15 1.47 1.346s4.552-9.974-4.23-19.022-16.285-2.491-20.993-3.056c-3.131-.376-13.989-.3-18.411 18.395z" class="cls-7"/>
                            </g>
                        </g>
                    </g>
                    <g id="Group_21345">
                        <g id="Group_21343">
                            <g id="Group_21340">
                                <path id="Path_24643" d="M358.1 164.27c-1.192-.736-2.819-.131-3.765.9a5.136 5.136 0 0 0 5.111 8.431" class="cls-11"/>
                            </g>
                            <g id="Group_21342">
                                <g id="Group_21341">
                                    <path id="Path_24644" d="M357.827 170.925c0 .063-.4.132-1.024-.036a2.7 2.7 0 0 1-1.87-1.658 1.992 1.992 0 0 1 .053-1.458 2.108 2.108 0 0 1 .762-.888c.562-.363.99-.337 1-.279.022.08-.35.19-.771.57a1.741 1.741 0 0 0-.546 1.889 2.659 2.659 0 0 0 1.5 1.478c.528.237.904.303.896.382z" class="cls-12"/>
                                </g>
                            </g>
                        </g>
                        <g id="Group_21344">
                            <path id="Path_24645" fill="#e8505b" d="M356.66 172.686a1.015 1.015 0 1 0 .386-.016"/>
                        </g>
                    </g>
                </g>
                <g id="Group_21347">
                    <path id="Path_24646" d="M382.564 237.995v-14.687s-21.811 4.525-22.21 14.512z" class="cls-11"/>
                </g>
                <g id="Group_21348">
                    <path id="Path_24647" d="M380.294 191.532a18.275 18.275 0 0 0 17.9 16.815c3.22.057 6.615-.709 9.554.607 2.556 1.143 4.2 3.621 6.215 5.568a18.441 18.441 0 0 0 18.285 4.134c2.641-.886 6.838-2.784 7.33-5.526.374-2.089-2.179-4.165-3.684-5.661a18.618 18.618 0 0 0-5.371-3.358c-15.536-7.3-32.214-12.6-49.354-13.512" class="cls-7"/>
                </g>
            </g>
        </g>
    </g>
</svg>
