<svg xmlns="http://www.w3.org/2000/svg" width="53.304" height="60.5" viewBox="0 0 53.304 60.5">
    <defs>
        <style>
            .prefix__cls-1{fill:#fff;stroke:#fff;stroke-width:.5px}
        </style>
    </defs>
    <g id="prefix__Group_20932" data-name="Group 20932" transform="translate(-1795.645 -176.75)">
        <path id="prefix__Path_24463" d="M46.621 37.992V34.3a1.171 1.171 0 0 0-2.342 0v2.9a11.564 11.564 0 0 0-5.031 0V15.065h5.031V23.7a1.171 1.171 0 1 0 2.342 0v-9.806a1.171 1.171 0 0 0-1.171-1.171h-6.2V1.21A1.126 1.126 0 0 0 38.115 0H9.988a1.238 1.238 0 0 0-1.21 1.21v11.513H1.671A1.171 1.171 0 0 0 .5 13.894v37.673a1.179 1.179 0 0 0 .039.3v3.494a4.605 4.605 0 0 0 4.6 4.6h35.678c.312.025.628.039.946.039a11.54 11.54 0 0 0 4.858-22.008zm-9.716-25.269h-5.936V2.381h5.936zM28.627 2.381v10.342H19.4V2.381zm-17.507 0h5.936v10.342H11.12zM8.778 15.065v8.805A1.226 1.226 0 0 0 9.988 25a1.105 1.105 0 0 0 1.132-1.13v-8.805h17.507v8.805a1.226 1.226 0 0 0 1.21 1.13 1.1 1.1 0 0 0 1.132-1.132v-8.803h5.936v22.927a11.541 11.541 0 0 0-6.526 12.366H2.842V15.065zM5.139 57.619a2.26 2.26 0 0 1-2.258-2.258v-2.623h28.164a11.6 11.6 0 0 0 3.706 4.88zm37.154.023a1.184 1.184 0 0 0-.233-.023h-1.14a9.2 9.2 0 1 1 1.374.023zm0 0" class="prefix__cls-1" data-name="Path 24463" transform="translate(1795.395 177)"/>
        <path id="prefix__Path_24464" d="M322.333 378.065h-2.164V375.9a1.171 1.171 0 1 0-2.342 0v2.163h-2.163a1.171 1.171 0 1 0 0 2.342h2.163v2.164a1.171 1.171 0 0 0 2.342 0v-2.164h2.164a1.171 1.171 0 0 0 0-2.342zm0 0" class="prefix__cls-1" data-name="Path 24464" transform="translate(1518.199 -153.817)"/>
        <path id="prefix__Path_24465" d="M375.6 239.315a1.172 1.172 0 1 1 1.148-.943 1.182 1.182 0 0 1-1.148.943zm0 0" class="prefix__cls-1" data-name="Path 24465" transform="translate(1465.288 -32.205)"/>
    </g>
</svg>
