<svg xmlns="http://www.w3.org/2000/svg" width="67.091" height="63.781" viewBox="0 0 67.091 63.781">
    <defs>
        <style>
            .prefix__cls-1{fill:#fff}
        </style>
    </defs>
    <g id="prefix__Group_20930" data-name="Group 20930" transform="translate(-1388.808 -175.077)">
        <path id="prefix__Path_24453" d="M66.97 131.966a5.712 5.712 0 0 0-6.867-4.406l-6.993 1.6v-2.86a27.623 27.623 0 0 0 3.9-4.623 27.1 27.1 0 0 0 3.831-9.022 27.643 27.643 0 0 0 .053-11.734 1.31 1.31 0 0 0-2.563.549 24.99 24.99 0 0 1-.048 10.613 24.49 24.49 0 0 1-3.462 8.152 23.329 23.329 0 0 1-1.713 2.26v-14.521a1.31 1.31 0 0 0-1.31-1.31H41.433V92.67a1.311 1.311 0 0 0-1.306-1.31l-11.676-.04a1.311 1.311 0 0 0-1.31 1.31v7.28H16.77a1.311 1.311 0 0 0-1.31 1.31v12.98h-2.92v-1.78a1.31 1.31 0 0 0-1.31-1.31H9.885a24.8 24.8 0 0 1 1.07-12.852c.244-.674.522-1.345.824-2A1.31 1.31 0 1 0 9.4 95.154c-.335.72-.642 1.463-.912 2.208a27.383 27.383 0 0 0-1.265 13.745H1.31a1.31 1.31 0 0 0-1.31 1.31v23.033a1.31 1.31 0 0 0 1.31 1.31h9.919a1.31 1.31 0 0 0 1.31-1.31v-1.25h4.929l19.967 7.832a15.772 15.772 0 0 0 9.7.607l15.65-3.978a5.7 5.7 0 0 0 4.185-6.695zm-16.48-22.682v20.478l-3.5.8c-.377.086-.758.154-1.14.207a13.3 13.3 0 0 1-4.394-.127h-.018v-1.987a6.069 6.069 0 0 0 .807-5.105 5.884 5.884 0 0 0-.617-1.374q-.09-.146-.187-.286v-12.6h9.056zM29.758 93.946l9.055.03V119.8l-5.061-2.095-3.995-1.654zm-11.678 8.585h9.055v12.438l-1.625-.669a1.309 1.309 0 0 0-.5-.1h-6.93zM9.919 134.14h-7.3v-20.413h7.3zm52.22 1.985l-15.65 3.975a13.169 13.169 0 0 1-8.1-.506l-20.2-7.922a1.309 1.309 0 0 0-.479-.09h-5.17v-14.765h12.208l8.479 3.509 4.64 1.921a3.278 3.278 0 0 1 1.754 4.246 3.747 3.747 0 0 1-.525.921 3.378 3.378 0 0 1-3.435 1.185l-.031-.008c-.076-.019-.151-.041-.226-.066l-8.817-3.39-.11-.042a1.31 1.31 0 0 0-.94 2.446s4.971 1.911 8.762 3.373c.076.03.152.057.228.083l2.911 1.119a24.062 24.062 0 0 0 2.671.909 15.9 15.9 0 0 0 7.461.094l4.52-1.034h.014l8.582-1.965a3.091 3.091 0 0 1 1.451 6.009zm0 0" class="prefix__cls-1" data-name="Path 24453" transform="translate(1388.808 95.723)"/>
        <path id="prefix__Path_24454" d="M119.187 9.32a1.305 1.305 0 0 0 .878-.338 24.624 24.624 0 0 1 18.194-6.309A24.577 24.577 0 0 1 145.4 4.23a1.31 1.31 0 1 0 .933-2.449 27.192 27.192 0 0 0-7.9-1.722 27.246 27.246 0 0 0-20.122 6.979 1.31 1.31 0 0 0 .878 2.283zm0 0" class="prefix__cls-1" data-name="Path 24454" transform="translate(1286.378 175.077)"/>
        <path id="prefix__Path_24455" d="M351.9 44.949a1.312 1.312 0 0 0 1.849-.13l10.781-12.41a1.31 1.31 0 0 0-1.978-1.719L351.767 43.1a1.31 1.31 0 0 0 .133 1.849zm0 0" class="prefix__cls-1" data-name="Path 24455" transform="translate(1083.415 148.8)"/>
        <path id="prefix__Path_24456" d="M406.8 99.738a3.29 3.29 0 1 0 3.29 3.29 3.293 3.293 0 0 0-3.29-3.29zm0 3.959a.669.669 0 1 1 .669-.669.67.67 0 0 1-.669.672zm0 0" class="prefix__cls-1" data-name="Path 24456" transform="translate(1038.171 88.408)"/>
        <path id="prefix__Path_24457" d="M351.27 33.845a3.29 3.29 0 1 0-3.29-3.29 3.293 3.293 0 0 0 3.29 3.29zm0-3.959a.669.669 0 1 1-.669.67.67.67 0 0 1 .669-.67zm0 0" class="prefix__cls-1" data-name="Path 24457" transform="translate(1086.426 151.384)"/>
        <path id="prefix__Path_24458" d="M91.679 82.634a1.31 1.31 0 1 0 .482-1.591 1.321 1.321 0 0 0-.482 1.591zm0 0" class="prefix__cls-1" data-name="Path 24458" transform="translate(1309.228 104.843)"/>
    </g>
</svg>
