<svg xmlns="http://www.w3.org/2000/svg" width="70.003" height="70.017" viewBox="0 0 70.003 70.017">
    <defs>
        <style>
            .prefix__cls-1{fill:#fff;stroke:#fff;stroke-width:.5px}
        </style>
    </defs>
    <g id="prefix__Group_20935" data-name="Group 20935" transform="translate(-1385.249 -296.741)">
        <path id="prefix__Path_24482" d="M69.5 19a1.028 1.028 0 0 0-.473-.843L47.5 4.523a1.019 1.019 0 0 0-.345-.138L25.362.022a1.023 1.023 0 0 0-.744 1.858l9.753 6.176-7.852 2.33-6.651-4.212a1.018 1.018 0 0 0-1.1.008L10.7 11.461a1.019 1.019 0 0 0 1.115 1.7l7.516-4.92 19.64 12.436-16.432 10.761L2.9 19l4.423-2.895a1.019 1.019 0 0 0-1.115-1.7L.462 18.164a1.033 1.033 0 0 0-.462.852v35.838a1.018 1.018 0 0 0 .473.86L22 69.346a1.036 1.036 0 0 0 .834.116l37.32-11.075a1.019 1.019 0 0 0-.579-1.952L23.567 67.122V33.408l43.9-13.028v33.714l-2.78.825a1.019 1.019 0 0 0 .579 1.952l3.509-1.041a1.018 1.018 0 0 0 .728-.976V19.016v-.017zM46.571 6.344L63.3 16.94l-16.223-3.249L30.344 3.1zM41.4 19.807l-12.6-7.975L36.655 9.5l9.493 6.011a1.019 1.019 0 0 0 .345.138l17.767 3.557L28.918 29.7l12.492-8.181a1.018 1.018 0 0 0-.013-1.712zM2.037 20.865l19.494 12.344v33.428L2.037 54.293z" class="prefix__cls-1" data-name="Path 24482" transform="translate(1385.498 297)"/>
        <path id="prefix__Path_24483" d="M237 292.254a1.018 1.018 0 0 0-.9-.16l-34.444 10.25a1.018 1.018 0 0 0-.728.976v9.935a1.018 1.018 0 0 0 1.308.976l34.444-10.25a1.018 1.018 0 0 0 .728-.976v-9.935a1.018 1.018 0 0 0-.408-.816zm-1.627 9.992l-32.408 9.644v-7.81l32.408-9.644z" class="prefix__cls-1" data-name="Path 24483" transform="translate(1211.842 44.593)"/>
        <path id="prefix__Path_24484" d="M285.2 374.262a1.018 1.018 0 0 0 1.018-1.018v-2.885a1.019 1.019 0 0 0-2.036 0v2.885a1.018 1.018 0 0 0 1.018 1.018z" class="prefix__cls-1" data-name="Path 24484" transform="translate(1139.896 -22.239)"/>
        <path id="prefix__Path_24485" d="M384.728 343.756a1.018 1.018 0 0 0 1.018-1.018v-2.885a1.019 1.019 0 0 0-2.036 0v2.885a1.018 1.018 0 0 0 1.018 1.018z" class="prefix__cls-1" data-name="Path 24485" transform="translate(1053.876 4.126)"/>
        <path id="prefix__Path_24486" d="M406.864 337.756a1.018 1.018 0 0 0 1.018-1.018v-2.885a1.019 1.019 0 0 0-2.036 0v2.885a1.018 1.018 0 0 0 1.018 1.018z" class="prefix__cls-1" data-name="Path 24486" transform="translate(1034.745 9.312)"/>
        <path id="prefix__Path_24487" d="M429 331.756a1.018 1.018 0 0 0 1.018-1.018v-2.885a1.019 1.019 0 0 0-2.036 0v2.885a1.018 1.018 0 0 0 1.018 1.018z" class="prefix__cls-1" data-name="Path 24487" transform="translate(1015.614 14.497)"/>
        <path id="prefix__Path_24488" d="M228.853 391.026a1.018 1.018 0 0 0 1.018-1.018v-2.885a1.019 1.019 0 0 0-2.036 0v2.885a1.018 1.018 0 0 0 1.018 1.018z" class="prefix__cls-1" data-name="Path 24488" transform="translate(1188.592 -36.728)"/>
        <path id="prefix__Path_24489" d="M250.531 385.692a1.018 1.018 0 0 0 1.018-1.018v-2.885a1.019 1.019 0 0 0-2.036 0v2.885a1.018 1.018 0 0 0 1.018 1.018z" class="prefix__cls-1" data-name="Path 24489" transform="translate(1169.856 -32.118)"/>
        <path id="prefix__Path_24490" d="M324.361 362.154a1.018 1.018 0 0 0 1.018-1.018v-2.885a1.019 1.019 0 0 0-2.036 0v2.885a1.018 1.018 0 0 0 1.018 1.018z" class="prefix__cls-1" data-name="Path 24490" transform="translate(1106.049 -11.775)"/>
        <path id="prefix__Path_24491" d="M345.564 356.724a1.018 1.018 0 0 0 1.018-1.018v-2.885a1.019 1.019 0 0 0-2.036 0v2.885a1.018 1.018 0 0 0 1.018 1.018z" class="prefix__cls-1" data-name="Path 24491" transform="translate(1087.724 -7.082)"/>
    </g>
</svg>
