<svg xmlns="http://www.w3.org/2000/svg" width="63.162" height="70.313" viewBox="0 0 63.162 70.313">
    <defs>
        <style>
            .prefix__cls-1{fill:#fff}
        </style>
    </defs>
    <g id="prefix__Group_20933" data-name="Group 20933" transform="translate(-605.236 -296)">
        <g id="prefix__Group_20757" data-name="Group 20757" transform="translate(610.003 335.326)">
            <path id="prefix__Path_24466" d="M57.2 264a1.192 1.192 0 0 0-1.2 1.194v4.767a1.192 1.192 0 0 0 2.383 0v-4.767A1.192 1.192 0 0 0 57.2 264z" class="prefix__cls-1" data-name="Path 24466" transform="translate(-56.004 -264.002)"/>
        </g>
        <g id="prefix__Group_20759" data-name="Group 20759" transform="translate(614.769 337.709)">
            <path id="prefix__Path_24467" d="M89.2 280a1.192 1.192 0 0 0-1.2 1.194v4.767a1.192 1.192 0 1 0 2.383 0v-4.767A1.192 1.192 0 0 0 89.2 280z" class="prefix__cls-1" data-name="Path 24467" transform="translate(-88.004 -280.002)"/>
        </g>
        <g id="prefix__Group_20761" data-name="Group 20761" transform="translate(644.563 342.476)">
            <path id="prefix__Path_24468" d="M302.879 313.631a1.192 1.192 0 0 0-1.335 1.973 7.15 7.15 0 1 1-4-1.219 1.192 1.192 0 1 0 0-2.383 9.533 9.533 0 1 0 5.332 1.629z" class="prefix__cls-1" data-name="Path 24468" transform="translate(-288.016 -312.002)"/>
        </g>
        <g id="prefix__Group_20763" data-name="Group 20763" transform="translate(605.236 296)">
            <path id="prefix__Path_24469" d="M86.6 52.051a14.294 14.294 0 0 0-7.78-9.031V16.684a1.192 1.192 0 0 0-.585-1.026L52.019.166a1.192 1.192 0 0 0-1.213 0L24.589 15.658c-.025.014-.043.036-.067.052s-.046.036-.07.055a1.175 1.175 0 0 0-.263.291c0 .008-.014.013-.019.021v.008a1.192 1.192 0 0 0-.135.39 1.055 1.055 0 0 1-.014.1 1.042 1.042 0 0 0-.017.1v30.993a1.192 1.192 0 0 0 .585 1.026l26.217 15.491a.979.979 0 0 0 .1.041.94.94 0 0 0 .1.043 1.063 1.063 0 0 0 .82 0 .959.959 0 0 0 .1-.043c.031-.014.064-.023.1-.041l7.116-4.205A14.294 14.294 0 0 0 86.6 52.051zM51.413 2.576l6.2 3.662-9.188 5.429a1.192 1.192 0 0 0 1.213 2.053l10.315-6.093 6.2 3.662-23.874 14.1-6.2-3.662 9.983-5.9a1.192 1.192 0 1 0-1.213-2.053l-11.113 6.572-6.2-3.662zM41.084 27.458v7.957l-6.156-3.638V23.82zm17.95 24.868a14.519 14.519 0 0 0-.392 5.177L52.6 61.072V57.2a1.192 1.192 0 0 0-2.383 0v3.871l-23.83-14.083V18.773l6.157 3.638v10.045a1.192 1.192 0 0 0 .585 1.027l8.54 5.047a1.192 1.192 0 0 0 1.8-1.026v-8.639l6.753 3.991v19.578a1.192 1.192 0 0 0 2.383 0V32.856L74.2 20.093a1.192 1.192 0 1 0-1.213-2.052L51.413 30.792l-6.793-4.014 23.874-14.109 7.944 4.694v24.823a14.243 14.243 0 0 0-17.404 10.14zm13.829 15.6A11.917 11.917 0 1 1 84.78 56.009a11.917 11.917 0 0 1-11.917 11.917z" class="prefix__cls-1" data-name="Path 24469" transform="translate(-24.004)"/>
        </g>
        <g id="prefix__Group_20765" data-name="Group 20765" transform="translate(649.342 348.449)">
            <path id="prefix__Path_24470" d="M329.242 352.434a1.192 1.192 0 0 0-1.656 0l-4.52 4.52-.945-.945a1.192 1.192 0 0 0-1.685 1.685l1.788 1.788a1.192 1.192 0 0 0 1.685 0l5.363-5.363a1.192 1.192 0 0 0-.03-1.685z" class="prefix__cls-1" data-name="Path 24470" transform="translate(-320.102 -352.1)"/>
        </g>
    </g>
</svg>
