<svg xmlns="http://www.w3.org/2000/svg" width="75.077" height="70.014" viewBox="0 0 75.077 70.014">
    <defs>
        <style>
            .prefix__cls-2{fill:#6d6f72;stroke-width:.5px;stroke:#fff}
        </style>
    </defs>
    <g id="prefix__Group_20921" data-name="Group 20921" transform="translate(-593.899 -171.736)">
        <path id="prefix__Path_24444" d="M79.036 55.58h-3.76a3.7 3.7 0 0 0-3.535-2.717h-4.015v-9.816a1.036 1.036 0 0 0-.505-.915L38.9 25.775a1.046 1.046 0 0 0-1.051 0L9.525 42.131a1.054 1.054 0 0 0-.525.916v32.712a1.057 1.057 0 0 0 .528.915l28.33 16.356a1.057 1.057 0 0 0 .528.142 1.111 1.111 0 0 0 .543-.142l14.907-8.6v6.216a4.475 4.475 0 0 0 4.513 4.486h20.687a4.5 4.5 0 0 0 4.542-4.486V60.137a4.559 4.559 0 0 0-4.542-4.556zm-7.258-.6a1.534 1.534 0 0 1 1.534 1.534v.1a1.534 1.534 0 0 1-1.534 1.534h-6.141a1.534 1.534 0 0 1-1.537-1.535v-.1a1.534 1.534 0 0 1 1.534-1.534zM38.386 27.911l11.771 6.8-26.213 15.131-11.771-6.8zm-1 62.373L11.113 75.149V44.875L37.382 60.01zm1-32.1l-12.329-7.122 26.214-15.135L64.6 43.046zm15.451 1.957v21.85L39.5 90.284V60.01l26.112-15.135v7.988h.033a3.7 3.7 0 0 0-3.535 2.717h-3.76a4.535 4.535 0 0 0-4.513 4.557zm27.627 30.51a2.384 2.384 0 0 1-2.428 2.373H58.35a2.359 2.359 0 0 1-2.4-2.373V60.137a2.419 2.419 0 0 1 2.4-2.443h3.8a3.615 3.615 0 0 0 3.494 2.566h6.096a3.614 3.614 0 0 0 3.494-2.566h3.8a2.444 2.444 0 0 1 2.428 2.443z" data-name="Path 24444" transform="translate(585.149 146.366)" style="stroke:#6d6f72;fill:#6d6f72;stroke-width:.5px"/>
        <path id="prefix__Path_24445" d="M338.049 285.1h1.106a1.057 1.057 0 0 0 0-2.114h-.042v-2.868h2.915a1.017 1.017 0 0 0 1 .714 1.06 1.06 0 0 0 1.063-1.054v-.711a1.071 1.071 0 0 0-1.064-1.067h-4.978a1.054 1.054 0 0 0-1.049 1.062v4.978a1.049 1.049 0 0 0 1.049 1.056z" class="prefix__cls-2" data-name="Path 24445" transform="translate(306.666 -67.901)"/>
        <path id="prefix__Path_24446" d="M338.057 349.1h4.982a1.057 1.057 0 0 0 1.057-1.057v-4.982a1.057 1.057 0 0 0-1.057-1.061h-4.982a1.057 1.057 0 0 0-1.057 1.057v4.982a1.057 1.057 0 0 0 1.057 1.061zm1.057-4.982h2.868v2.868h-2.868z" class="prefix__cls-2" data-name="Path 24446" transform="translate(306.666 -122.239)"/>
        <path id="prefix__Path_24447" d="M339.155 410.982h-.042v-2.868h2.858a1.062 1.062 0 1 0 2.124 0V407.1a1.1 1.1 0 0 0-1.068-1.1h-4.978a1.086 1.086 0 0 0-1.049 1.1v4.978a1.019 1.019 0 0 0 1.049 1.02h1.106a1.057 1.057 0 0 0 0-2.114z" class="prefix__cls-2" data-name="Path 24447" transform="translate(306.667 -176.578)"/>
        <path id="prefix__Path_24448" d="M360.195 284.849l-3.095 3.095-.941-.942a1.057 1.057 0 1 0-1.495 1.495l1.689 1.689a1.057 1.057 0 0 0 1.495 0l3.842-3.842a1.057 1.057 0 1 0-1.495-1.495z" class="prefix__cls-2" data-name="Path 24448" transform="translate(291.932 -73.453)"/>
        <path id="prefix__Path_24449" d="M360.195 414.1l-3.095 3.095-.941-.942a1.057 1.057 0 1 0-1.495 1.495l1.689 1.689a1.057 1.057 0 0 0 1.495 0l3.842-3.842a1.057 1.057 0 1 0-1.49-1.495z" class="prefix__cls-2" data-name="Path 24449" transform="translate(291.932 -183.19)"/>
        <path id="prefix__Path_24450" d="M421.585 295h-6.637a1.057 1.057 0 1 0 0 2.114h6.637a1.057 1.057 0 0 0 0-2.114z" class="prefix__cls-2" data-name="Path 24450" transform="translate(241.383 -82.335)"/>
        <path id="prefix__Path_24451" d="M421.585 359h-6.637a1.057 1.057 0 1 0 0 2.114h6.637a1.057 1.057 0 0 0 0-2.114z" class="prefix__cls-2" data-name="Path 24451" transform="translate(241.383 -136.673)"/>
        <path id="prefix__Path_24452" d="M421.585 423h-6.637a1.057 1.057 0 1 0 0 2.114h6.637a1.057 1.057 0 0 0 0-2.114z" class="prefix__cls-2" data-name="Path 24452" transform="translate(241.383 -191.011)"/>
    </g>
</svg>
