<svg xmlns="http://www.w3.org/2000/svg" width="53.153" height="65.004" viewBox="0 0 53.153 65.004">
    <defs>
        <style>
            .prefix__cls-1{fill:#6d6f72;stroke:#707070;stroke-width:.5px}
        </style>
    </defs>
    <g id="prefix__Group_20927" data-name="Group 20927" transform="translate(-1800.097 -298.75)">
        <g id="prefix__Group_20767" data-name="Group 20767" transform="translate(1806.811 308.696)">
            <path id="prefix__Path_24471" d="M105.812 80.192a1.01 1.01 0 0 0-1.01 1.01 2.222 2.222 0 1 1-2.222-2.222 1.01 1.01 0 0 0 0-2.02 4.242 4.242 0 1 0 4.242 4.242 1.01 1.01 0 0 0-1.01-1.01z" class="prefix__cls-1" data-name="Path 24471" transform="translate(-98.338 -76.96)"/>
        </g>
        <g id="prefix__Group_20769" data-name="Group 20769" transform="translate(1806.811 320.546)">
            <path id="prefix__Path_24472" d="M105.812 174.254a1.01 1.01 0 0 0-1.01 1.01 2.222 2.222 0 1 1-2.222-2.222 1.01 1.01 0 0 0 0-2.02 4.242 4.242 0 1 0 4.242 4.242 1.01 1.01 0 0 0-1.01-1.01z" class="prefix__cls-1" data-name="Path 24472" transform="translate(-98.338 -171.022)"/>
        </g>
        <g id="prefix__Group_20771" data-name="Group 20771" transform="translate(1817.584 325.933)">
            <path id="prefix__Path_24473" d="M192.4 213.779h-7.541a1.01 1.01 0 1 0 0 2.02h7.541a1.01 1.01 0 1 0 0-2.02z" class="prefix__cls-1" data-name="Path 24473" transform="translate(-183.849 -213.779)"/>
        </g>
        <g id="prefix__Group_20773" data-name="Group 20773" transform="translate(1817.584 321.623)">
            <path id="prefix__Path_24474" d="M192.4 179.574h-7.541a1.01 1.01 0 0 0 0 2.02h7.541a1.01 1.01 0 1 0 0-2.02z" class="prefix__cls-1" data-name="Path 24474" transform="translate(-183.849 -179.574)"/>
        </g>
        <g id="prefix__Group_20775" data-name="Group 20775" transform="translate(1817.584 337.783)">
            <path id="prefix__Path_24475" d="M190.246 307.841h-5.387a1.01 1.01 0 1 0 0 2.02h5.387a1.01 1.01 0 1 0 0-2.02z" class="prefix__cls-1" data-name="Path 24475" transform="translate(-183.849 -307.841)"/>
        </g>
        <g id="prefix__Group_20777" data-name="Group 20777" transform="translate(1817.584 333.474)">
            <path id="prefix__Path_24476" d="M192.4 273.637h-7.541a1.01 1.01 0 1 0 0 2.02h7.541a1.01 1.01 0 1 0 0-2.02z" class="prefix__cls-1" data-name="Path 24476" transform="translate(-183.849 -273.637)"/>
        </g>
        <g id="prefix__Group_20779" data-name="Group 20779" transform="translate(1817.584 314.082)">
            <path id="prefix__Path_24477" d="M202.1 119.716h-17.241a1.01 1.01 0 1 0 0 2.02H202.1a1.01 1.01 0 0 0 0-2.02z" class="prefix__cls-1" data-name="Path 24477" transform="translate(-183.849 -119.716)"/>
        </g>
        <g id="prefix__Group_20781" data-name="Group 20781" transform="translate(1817.584 309.773)">
            <path id="prefix__Path_24478" d="M197.787 85.511h-12.928a1.01 1.01 0 1 0 0 2.02h12.928a1.01 1.01 0 1 0 0-2.02z" class="prefix__cls-1" data-name="Path 24478" transform="translate(-183.849 -85.511)"/>
        </g>
        <g id="prefix__Group_20783" data-name="Group 20783" transform="translate(1806.811 332.396)">
            <path id="prefix__Path_24479" d="M105.812 268.317a1.01 1.01 0 0 0-1.01 1.01 2.222 2.222 0 1 1-2.222-2.222 1.01 1.01 0 0 0 0-2.02 4.242 4.242 0 1 0 4.242 4.242 1.01 1.01 0 0 0-1.01-1.01z" class="prefix__cls-1" data-name="Path 24479" transform="translate(-98.338 -265.085)"/>
        </g>
        <g id="prefix__Group_20785" data-name="Group 20785" transform="translate(1800.347 299)">
            <path id="prefix__Path_24480" d="M86.824 0H50.2a3.168 3.168 0 0 0-3.165 3.165v45.246a3.168 3.168 0 0 0 3.165 3.165h18.31a1.01 1.01 0 1 0 0-2.02H50.2a1.146 1.146 0 0 1-1.145-1.145V3.165A1.146 1.146 0 0 1 50.2 2.02h36.624a1.146 1.146 0 0 1 1.145 1.145v33.4a1.01 1.01 0 1 0 2.02 0v-33.4A3.168 3.168 0 0 0 86.824 0z" class="prefix__cls-1" data-name="Path 24480" transform="translate(-47.031)"/>
        </g>
        <g id="prefix__Group_20787" data-name="Group 20787" transform="translate(1824.589 321.624)">
            <path id="prefix__Path_24481" d="M264.538 197.911a3.726 3.726 0 0 0-2.619.736 3.679 3.679 0 0 0-2.767-1.814 3.727 3.727 0 0 0-2.619.736 3.679 3.679 0 0 0-2.767-1.814 3.731 3.731 0 0 0-2.062.387v-12.861a3.7 3.7 0 0 0-4.082-3.684 3.821 3.821 0 0 0-3.325 3.838v12.894l-2.969 2.969a6.356 6.356 0 0 0-1.7 5.988l2.254 9.579a8.518 8.518 0 0 0 8.324 6.593h9.109a8.561 8.561 0 0 0 8.551-8.551v-11.158a3.821 3.821 0 0 0-3.328-3.838zm1.3 15a6.539 6.539 0 0 1-6.531 6.531H250.2a6.506 6.506 0 0 1-6.358-5.035l-2.254-9.579a4.349 4.349 0 0 1 1.165-4.1l1.541-1.541v3.487a1.01 1.01 0 0 0 2.02 0v-19.24a1.786 1.786 0 0 1 1.506-1.828 1.684 1.684 0 0 1 1.86 1.674v17.775a1.01 1.01 0 0 0 2.02 0v-1.615a1.684 1.684 0 0 1 1.86-1.674 1.786 1.786 0 0 1 1.506 1.828v2.539a1.01 1.01 0 1 0 2.02 0v-1.616a1.684 1.684 0 0 1 1.86-1.674 1.786 1.786 0 0 1 1.506 1.828v2.54a1.01 1.01 0 0 0 2.02 0v-1.616a1.684 1.684 0 0 1 1.86-1.674 1.786 1.786 0 0 1 1.506 1.828v11.158z" class="prefix__cls-1" data-name="Path 24481" transform="translate(-239.452 -179.578)"/>
        </g>
    </g>
</svg>
