<svg xmlns="http://www.w3.org/2000/svg" width="56.88" height="59.279" viewBox="0 0 56.88 59.279">
    <defs>
        <style>
            .prefix__cls-1{fill:#fff}
        </style>
    </defs>
    <g id="prefix__Group_20931" data-name="Group 20931" transform="translate(-1004.406 -180.656)">
        <g id="prefix__Group_20749" data-name="Group 20749" transform="translate(1004.406 180.656)">
            <path id="prefix__Path_24459" d="M64.5 30.405a1.737 1.737 0 0 1 0-1.536l2.211-4.523a5.146 5.146 0 0 0-2.22-6.834l-4.447-2.36a1.737 1.737 0 0 1-.9-1.242l-.87-4.959a5.146 5.146 0 0 0-5.819-4.221l-4.985.705a1.737 1.737 0 0 1-1.46-.475l-3.618-3.5a5.146 5.146 0 0 0-7.185 0l-3.618 3.5a1.738 1.738 0 0 1-1.46.475l-4.986-.705a5.146 5.146 0 0 0-5.813 4.223l-.87 4.958a1.738 1.738 0 0 1-.9 1.242l-4.447 2.36a5.146 5.146 0 0 0-2.22 6.834L13.1 28.87a1.737 1.737 0 0 1 0 1.536l-2.211 4.523a5.146 5.146 0 0 0 2.22 6.834l4.447 2.36a1.737 1.737 0 0 1 .9 1.242l.87 4.959A5.143 5.143 0 0 0 24.4 54.6a5.287 5.287 0 0 0 .74-.052l4.985-.705a1.737 1.737 0 0 1 1.46.475l3.618 3.5a5.146 5.146 0 0 0 7.185 0l3.618-3.5a1.739 1.739 0 0 1 1.46-.475l4.985.705a5.145 5.145 0 0 0 5.813-4.223l.87-4.958a1.738 1.738 0 0 1 .9-1.242l4.447-2.36a5.146 5.146 0 0 0 2.22-6.834zm-1.612 8.336L58.437 41.1a5.134 5.134 0 0 0-2.668 3.672l-.87 4.959a1.741 1.741 0 0 1-1.967 1.429l-4.985-.705a5.133 5.133 0 0 0-4.316 1.4l-3.618 3.5a1.741 1.741 0 0 1-2.431 0l-3.618-3.5a5.129 5.129 0 0 0-3.579-1.455 5.248 5.248 0 0 0-.736.052l-4.985.705a1.741 1.741 0 0 1-1.964-1.426l-.87-4.959a5.134 5.134 0 0 0-2.67-3.672l-4.447-2.36a1.741 1.741 0 0 1-.751-2.312l2.211-4.523a5.134 5.134 0 0 0 0-4.538l-2.211-4.523a1.741 1.741 0 0 1 .751-2.312l4.447-2.36a5.134 5.134 0 0 0 2.668-3.672l.87-4.959a1.741 1.741 0 0 1 1.967-1.429l4.985.705a5.134 5.134 0 0 0 4.316-1.4l3.618-3.5a1.741 1.741 0 0 1 2.431 0l3.618 3.5a5.134 5.134 0 0 0 4.316 1.4l4.985-.705A1.741 1.741 0 0 1 54.9 9.544l.87 4.959a5.134 5.134 0 0 0 2.668 3.672l4.447 2.36a1.741 1.741 0 0 1 .751 2.312l-2.211 4.523a5.134 5.134 0 0 0 0 4.538l2.211 4.523a1.741 1.741 0 0 1-.752 2.311z" class="prefix__cls-1" data-name="Path 24459" transform="translate(-10.359 .002)"/>
        </g>
        <g id="prefix__Group_20751" data-name="Group 20751" transform="translate(1019.855 197.304)">
            <path id="prefix__Path_24460" d="M169.273 144.292a1.709 1.709 0 0 0-2.418 0l-22.564 22.564a1.709 1.709 0 1 0 2.417 2.418l22.564-22.564a1.709 1.709 0 0 0 .001-2.418z" class="prefix__cls-1" data-name="Path 24460" transform="translate(-143.791 -143.791)"/>
        </g>
        <g id="prefix__Group_20753" data-name="Group 20753" transform="translate(1019.74 194.91)">
            <path id="prefix__Path_24461" d="M149.07 123.116a6.268 6.268 0 1 0 6.268 6.268 6.275 6.275 0 0 0-6.268-6.268zm0 9.117a2.849 2.849 0 1 1 2.849-2.849 2.852 2.852 0 0 1-2.849 2.849z" class="prefix__cls-1" data-name="Path 24461" transform="translate(-142.802 -123.116)"/>
        </g>
        <g id="prefix__Group_20755" data-name="Group 20755" transform="translate(1033.416 213.145)">
            <path id="prefix__Path_24462" d="M267.19 280.61a6.268 6.268 0 1 0 6.268 6.268 6.275 6.275 0 0 0-6.268-6.268zm0 9.117a2.849 2.849 0 1 1 2.849-2.849 2.852 2.852 0 0 1-2.849 2.849z" class="prefix__cls-1" data-name="Path 24462" transform="translate(-260.922 -280.61)"/>
        </g>
    </g>
</svg>
