<svg xmlns="http://www.w3.org/2000/svg" width="24.919" height="24.918" viewBox="0 0 24.919 24.918">
  <g id="accounts" transform="translate(-0.5 -0.5)">
    <path id="Path_24565" data-name="Path 24565" d="M43.873,38.45,43.092,38a5.152,5.152,0,0,0,0-1.948l.781-.448a.593.593,0,0,0,.217-.81L42.9,32.736a.593.593,0,0,0-.81-.217l-.78.45A5.335,5.335,0,0,0,39.625,32v-.9a.593.593,0,0,0-.593-.593H36.659a.593.593,0,0,0-.593.593V32a5.331,5.331,0,0,0-1.688.972l-.78-.451a.593.593,0,0,0-.81.217L31.6,34.791a.593.593,0,0,0,.217.81l.781.451A5.173,5.173,0,0,0,32.6,38l-.781.45a.593.593,0,0,0-.217.81l1.187,2.057a.593.593,0,0,0,.81.217l.78-.45a5.331,5.331,0,0,0,1.688.972v.9a.593.593,0,0,0,.593.593h2.373a.593.593,0,0,0,.593-.593v-.9a5.335,5.335,0,0,0,1.688-.972l.78.451a.593.593,0,0,0,.81-.217l1.187-2.057a.593.593,0,0,0-.217-.812Zm-6.028,1.345a2.769,2.769,0,1,1,2.769-2.769A2.769,2.769,0,0,1,37.846,39.795Z" transform="translate(-18.752 -18.134)" fill="#fff"/>
    <path id="Path_24566" data-name="Path 24566" d="M13.5,10.43a7.281,7.281,0,0,0,2.057-5A4.713,4.713,0,0,0,10.632.5,4.714,4.714,0,0,0,5.705,5.427a7.278,7.278,0,0,0,2.059,5A9.551,9.551,0,0,0,.5,19.726a.593.593,0,0,0,.3.514,18.672,18.672,0,0,0,9.836,2.794,18.471,18.471,0,0,0,1.888-.1L11.864,21.8c-.413.03-.825.051-1.232.051A17.49,17.49,0,0,1,1.693,19.4,8.358,8.358,0,0,1,7.04,11.9l3.078,5.33a.593.593,0,0,0,1.028,0L14.223,11.9a8.417,8.417,0,0,1,1.905,1.052,1.764,1.764,0,0,1,.43-1.145A9.743,9.743,0,0,0,13.5,10.43Zm-6.609-5a3.505,3.505,0,0,1,3.74-3.74,3.505,3.505,0,0,1,3.74,3.74c0,2.281-1.6,5.1-3.74,5.1s-3.74-2.785-3.74-5.1Zm3.74,10.323-2.427-4.2a8.6,8.6,0,0,1,.924-.165,3.625,3.625,0,0,0,3.009,0,8.339,8.339,0,0,1,.922.164Z" fill="#fff"/>
  </g>
</svg>
