<svg xmlns="http://www.w3.org/2000/svg" id="prefix__chat" width="26" height="26" viewBox="0 0 26 26">
    <defs>
        <style>
            .prefix__cls-1{fill:#fff}
        </style>
    </defs>
    <g id="prefix__XMLID_1_">
        <circle id="prefix__Ellipse_168" cx=".542" cy=".542" r=".542" class="prefix__cls-1" data-name="Ellipse 168" transform="translate(21.667 3.792)"/>
        <circle id="prefix__Ellipse_169" cx=".542" cy=".542" r=".542" class="prefix__cls-1" data-name="Ellipse 169" transform="translate(18.958 3.792)"/>
        <circle id="prefix__Ellipse_170" cx=".542" cy=".542" r=".542" class="prefix__cls-1" data-name="Ellipse 170" transform="translate(16.25 3.792)"/>
        <path id="prefix__Path_23134" d="M16.333 10.183l2.6-2.383a.563.563 0 0 1 .433-.217h4.117a.5.5 0 0 0 .433-.542V1.625a.512.512 0 0 0-.542-.542h-9.75a.512.512 0 0 0-.542.542v5.417a.512.512 0 0 0 .542.542h2.167a.512.512 0 0 1 .542.542zM12 1.625A1.666 1.666 0 0 1 13.625 0h9.75A1.666 1.666 0 0 1 25 1.625v5.417a1.666 1.666 0 0 1-1.625 1.625h-3.9l-3.358 3.142a.4.4 0 0 1-.325.108h-.217a.6.6 0 0 1-.325-.542V8.667h-1.625A1.666 1.666 0 0 1 12 7.042z" class="prefix__cls-1" data-name="Path 23134" transform="translate(1)"/>
        <path id="prefix__Path_23135" d="M10.042 7v8.667c0 .108-.108.325-.108.433l-6.176 6.067A5 5 0 0 1 3 21.408l5.958-5.958V7h1.083z" class="prefix__cls-1" data-name="Path 23135" transform="translate(.25 .583)"/>
        <path id="prefix__Path_23136" d="M9.583 6.542v.542H8.5v-.542a.542.542 0 1 1 1.083 0z" class="prefix__cls-1" data-name="Path 23136" transform="translate(.708 .5)"/>
        <path id="prefix__Path_23137" d="M19.275 15.211a9.709 9.709 0 0 1-9.75 9.75A9.57 9.57 0 0 1 2.7 22.144a.4.4 0 0 0 .325.108 1.091 1.091 0 0 0 .325-.108l.433-.433a8.951 8.951 0 0 0 5.742 2.167 8.692 8.692 0 0 0 8.667-8.667 12 12 0 0 0-.217-2.058.4.4 0 0 1 .217-.542.378.378 0 0 1 .217-.108c.325-.108.542.108.65.433a14.746 14.746 0 0 1 .217 2.275z" class="prefix__cls-1" data-name="Path 23137" transform="translate(.225 1.039)"/>
        <path id="prefix__Path_23138" d="M2.612 21.492a.524.524 0 0 1 0-.758l.433-.433.758.758-.433.433a.4.4 0 0 1-.325.108.651.651 0 0 1-.433-.108z" class="prefix__cls-1" data-name="Path 23138" transform="translate(.204 1.692)"/>
        <path id="prefix__Path_23139" d="M2.817 21.926a.524.524 0 0 0 0 .758A10.023 10.023 0 0 1 0 15.751 9.834 9.834 0 0 1 10.292 6a.542.542 0 1 1 0 1.083v-.54a.542.542 0 1 0-1.083 0v.542a8.741 8.741 0 0 0-8.125 8.667 8.951 8.951 0 0 0 2.166 5.741z" class="prefix__cls-1" data-name="Path 23139" transform="translate(0 .499)"/>
    </g>
</svg>
