<svg xmlns="http://www.w3.org/2000/svg" width="27.208" height="25.281" viewBox="0 0 27.208 25.281">
    <defs>
        <style>
            .prefix__cls-1{fill:none;stroke:#fff;stroke-linecap:round;stroke-linejoin:round}
        </style>
    </defs>
    <g id="prefix__Group_1491" data-name="Group 1491" transform="translate(-94.717 -5074.073)">
        <g id="prefix__Group_1488" data-name="Group 1488" transform="translate(101.762 5074.573)">
            <path id="prefix__Rectangle_653" d="M0 0H13.091V12.152H0z" class="prefix__cls-1" data-name="Rectangle 653"/>
            <path id="prefix__Rectangle_654" d="M0 0H4.394V3.273H0z" class="prefix__cls-1" data-name="Rectangle 654" transform="translate(4.349)"/>
            <path id="prefix__Line_170" d="M0 0L13.091 0" class="prefix__cls-1" data-name="Line 170" transform="translate(0 9.534)"/>
        </g>
        <g id="prefix__Group_1489" data-name="Group 1489" transform="translate(95.217 5086.702)">
            <path id="prefix__Rectangle_655" d="M0 0H13.091V12.152H0z" class="prefix__cls-1" data-name="Rectangle 655"/>
            <path id="prefix__Rectangle_656" d="M0 0H4.394V3.273H0z" class="prefix__cls-1" data-name="Rectangle 656" transform="translate(4.349)"/>
            <path id="prefix__Line_171" d="M0 0L13.091 0" class="prefix__cls-1" data-name="Line 171" transform="translate(0 9.534)"/>
        </g>
        <g id="prefix__Group_1490" data-name="Group 1490" transform="translate(108.334 5086.702)">
            <path id="prefix__Rectangle_657" d="M0 0H13.091V12.152H0z" class="prefix__cls-1" data-name="Rectangle 657"/>
            <path id="prefix__Rectangle_658" d="M0 0H4.394V3.273H0z" class="prefix__cls-1" data-name="Rectangle 658" transform="translate(4.349)"/>
            <path id="prefix__Line_172" d="M0 0L13.091 0" class="prefix__cls-1" data-name="Line 172" transform="translate(0 9.534)"/>
        </g>
    </g>
</svg>
