<svg xmlns="http://www.w3.org/2000/svg" width="21.737" height="28.829" viewBox="0 0 21.737 28.829">
    <defs>
        <style>
            .prefix__cls-1{fill:none;stroke:#fff;stroke-linecap:round;stroke-linejoin:round}
        </style>
    </defs>
    <g id="prefix__Group_1452" data-name="Group 1452" transform="translate(381.688 -4962.196)">
        <path id="prefix__Path_2255" d="M-364.512 4962.694v3.586l1.47.5 1.472-.5v-3.586a4.08 4.08 0 0 1 2.607 3.8 4.074 4.074 0 0 1-2.181 3.608v20.417h-3.538v-20.292a4.078 4.078 0 0 1-2.437-3.732 4.08 4.08 0 0 1 2.607-3.801z" class="prefix__cls-1" data-name="Path 2255" transform="translate(-7.919 .001)"/>
        <path id="prefix__Path_2256" d="M-366.432 5005.247a5.234 5.234 0 0 1-3.59-4.968 5.233 5.233 0 0 1 3.59-4.969" class="prefix__cls-1" data-name="Path 2256" transform="translate(-6.412 -19.658)"/>
        <path id="prefix__Path_2257" d="M-352.078 4995.541a5.233 5.233 0 0 1 3.334 4.876 5.232 5.232 0 0 1-3.334 4.876" class="prefix__cls-1" data-name="Path 2257" transform="translate(-16.73 -19.798)"/>
        <path id="prefix__Path_2258" d="M-379.177 5006.761h-2.011v-3.536h2.037" class="prefix__cls-1" data-name="Path 2258" transform="translate(0 -24.43)"/>
        <path id="prefix__Path_2259" d="M-337.647 5003.225h2.292v3.536h-2.267" class="prefix__cls-1" data-name="Path 2259" transform="translate(-25.097 -24.43)"/>
        <path id="prefix__Path_2260" d="M-343.657 5017.985l1.58 1.579-2.5 2.5-1.538-1.538" class="prefix__cls-1" data-name="Path 2260" transform="translate(-19.992 -33.327)"/>
        <path id="prefix__Path_2261" d="M-375.649 4991.06l-1.466-1.466 2.5-2.5 1.508 1.508" class="prefix__cls-1" data-name="Path 2261" transform="translate(-2.455 -14.706)"/>
        <path id="prefix__Path_2262" d="M-375.693 5018.383l-1.422 1.422 2.5 2.5 1.44-1.44" class="prefix__cls-1" data-name="Path 2262" transform="translate(-2.455 -33.567)"/>
        <path id="prefix__Path_2263" d="M-343.8 4991.217l1.622-1.623-2.5-2.5-1.605 1.605" class="prefix__cls-1" data-name="Path 2263" transform="translate(-19.888 -14.706)"/>
        <path id="prefix__Path_2264" d="M-376.06 4999.521a7.8 7.8 0 0 1 1.046-2.441" class="prefix__cls-1" data-name="Path 2264" transform="translate(-3.091 -20.726)"/>
        <path id="prefix__Path_2265" d="M-375.1 5014.614a7.8 7.8 0 0 1-1.028-2.484" class="prefix__cls-1" data-name="Path 2265" transform="translate(-3.052 -29.797)"/>
        <path id="prefix__Path_2266" d="M-367.021 4989.453a7.787 7.787 0 0 1 2.4-.947" class="prefix__cls-1" data-name="Path 2266" transform="translate(-8.163 -15.557)"/>
        <path id="prefix__Path_2267" d="M-364.716 5025.637a7.792 7.792 0 0 1-2.459-.983" class="prefix__cls-1" data-name="Path 2267" transform="translate(-8.073 -37.347)"/>
        <path id="prefix__Path_2268" d="M-349.71 5024.391a7.793 7.793 0 0 1-2.368 1.029" class="prefix__cls-1" data-name="Path 2268" transform="translate(-16.776 -37.189)"/>
        <path id="prefix__Path_2269" d="M-338.993 5012.13a7.791 7.791 0 0 1-.931 2.326" class="prefix__cls-1" data-name="Path 2269" transform="translate(-23.724 -29.797)"/>
        <path id="prefix__Path_2270" d="M-340.031 4997.474a7.8 7.8 0 0 1 .947 2.284" class="prefix__cls-1" data-name="Path 2270" transform="translate(-23.66 -20.963)"/>
        <path id="prefix__Path_2271" d="M-352.078 4988.654a7.813 7.813 0 0 1 2.3.985" class="prefix__cls-1" data-name="Path 2271" transform="translate(-16.779 -15.647)"/>
    </g>
</svg>
