<svg xmlns="http://www.w3.org/2000/svg" width="23.666" height="25" viewBox="0 0 23.666 25">
    <defs>
        <style>
            .prefix__cls-1{fill:none;stroke:#fff;stroke-linecap:round;stroke-linejoin:round}
        </style>
    </defs>
    <g id="prefix__Group_179" data-name="Group 179" transform="translate(-397.389 -37.951)">
        <path id="prefix__Path_294" d="M414.9 52.7v9.754h-17.011v-24h12.171l4.844 5.225v5.043" class="prefix__cls-1" data-name="Path 294"/>
        <path id="prefix__Path_295" d="M416.264 38.451v5.34h4.844" class="prefix__cls-1" data-name="Path 295" transform="translate(-6.204)"/>
        <path id="prefix__Path_296" d="M415.626 60.031l1.416-3.793 7.645-7.756 1.856 1.964-7.452 7.847z" class="prefix__cls-1" data-name="Path 296" transform="translate(-5.988 -3.657)"/>
        <path id="prefix__Line_12" d="M0 0L2.049 2.056" class="prefix__cls-1" data-name="Line 12" transform="translate(411.054 52.513)"/>
        <path id="prefix__Line_13" d="M0 0L1.936 1.954" class="prefix__cls-1" data-name="Line 13" transform="translate(416.763 46.858)"/>
        <path id="prefix__Line_14" d="M0 0L5.837 0" class="prefix__cls-1" data-name="Line 14" transform="translate(401.242 52.541)"/>
        <path id="prefix__Line_15" d="M0 0L9.044 0" class="prefix__cls-1" data-name="Line 15" transform="translate(401.242 54.552)"/>
        <path id="prefix__Line_16" d="M0 0L10.847 0" class="prefix__cls-1" data-name="Line 16" transform="translate(401.242 56.564)"/>
        <path id="prefix__Line_17" d="M0 0L10.848 0" class="prefix__cls-1" data-name="Line 17" transform="translate(401.242 58.489)"/>
    </g>
</svg>
